<svg xmlns="http://www.w3.org/2000/svg" viewBox="0 0 25.946 25.946">
    <defs>
        <style>
            .cls-1{fill:#15457d}.cls-2{fill:#fff}
        </style>
    </defs>
    <g id="attach" transform="translate(-301 -68)">
        <path id="Rectangle_1722" d="M0 0h25.947v25.947H0z" class="cls-1" data-name="Rectangle 1722" transform="translate(301 68)"/>
        <g id="noun_attach_204610_000000" transform="translate(291.926 -888.979)">
            <path id="Path_692" d="M25.871 962.362a3.256 3.256 0 0 0-2.263.905h-.025l-1.71 1.76-1.157 1.131-5.381 5.381a4.436 4.436 0 0 0 6.261 6.286l6.537-6.613L27 970.106l-5.129 5.129-1.131 1.131-.2.176c-.03.08-.069.07-.1.151a2.827 2.827 0 0 1-3.973-4.023l.1-.075.176-.252 1.157-1.131 3.948-3.922.905-.905.251-.226 1.71-1.785h.025a1.727 1.727 0 0 1 2.263 0 1.709 1.709 0 0 1 0 2.338l-1.961 1.936-1.458 1.458-.578.553-1.182 1.207-1.383 1.358a.377.377 0 0 1-.553 0 .384.384 0 0 1 0-.553l1.358-1.358 1.207-1.207.553-.578 1.71-1.685-1.131-1.131-1.71 1.685-.578.578-2.54 2.565h-.026a1.985 1.985 0 0 0 .025 2.816 1.944 1.944 0 0 0 2.816 0h.029l.855-.8 2.263-2.338 3.42-3.369h.025a3.206 3.206 0 0 0-2.288-5.481z" class="cls-2" data-name="Path 692"/>
        </g>
    </g>
</svg>
