<svg xmlns="http://www.w3.org/2000/svg" viewBox="0 0 30 30">
    <defs>
        <style>
            .cls-1{fill:none}.cls-2,.cls-4{fill:#15457d}.cls-3,.cls-4{stroke:none}
        </style>
    </defs>
    <g id="close_x" data-name="close x" transform="translate(-46 -235.186)">
        <g id="Path_333" class="cls-1" data-name="Path 333">
            <path d="M15 0A15 15 0 1 1 0 15 15 15 0 0 1 15 0z" class="cls-3" transform="translate(46 235.186)"/>
            <path d="M15 2a12.915 12.915 0 0 0-9.192 3.808A12.915 12.915 0 0 0 2 15c0 3.472 1.352 6.737 3.808 9.192A12.915 12.915 0 0 0 15 28c3.472 0 6.737-1.352 9.192-3.808A12.915 12.915 0 0 0 28 15c0-3.472-1.352-6.737-3.808-9.192A12.915 12.915 0 0 0 15 2m0-2c8.284 0 15 6.716 15 15 0 8.284-6.716 15-15 15-8.284 0-15-6.716-15-15C0 6.716 6.716 0 15 0z" class="cls-4" transform="translate(46 235.186)"/>
        </g>
        <path id="_" d="M7 0v7H0v2h7v7h2V9h7V7H9V0z" class="cls-2" data-name="+" transform="rotate(45 -258.827 193.477)"/>
    </g>
</svg>
