<svg xmlns="http://www.w3.org/2000/svg" width="18" height="14" viewBox="0 0 18 14">
    <path fill="#FFF" fill-rule="evenodd" d="M17.482 1.313C17.482.588 16.895 0 16.165 0H9.184a1.313 1.313 0 0 0 0 2.627h6.981c.727 0 1.317-.583 1.317-1.314zm0 5.253a1.31 1.31 0 0 0-1.314-1.313H1.314A1.31 1.31 0 0 0 0 6.566 1.31 1.31 0 0 0 1.314 7.88h14.854a1.31 1.31 0 0 0 1.314-1.314zm0 5.253a1.31 1.31 0 0 0-1.316-1.313H4.812c-.727 0-1.316.583-1.316 1.313a1.31 1.31 0 0 0 1.316 1.314h11.354c.727 0 1.316-.583 1.316-1.314z"/>
</svg>
