<svg xmlns="http://www.w3.org/2000/svg" viewBox="0 0 55.183 146.623">
    <defs>
        <style>
            .cls-1,.cls-2{fill:none}.cls-1,.cls-2,.cls-3{stroke:#15457d;stroke-miterlimit:10;stroke-width:2px}.cls-2,.cls-3{stroke-linecap:round;stroke-linejoin:round}.cls-3{fill:url(#linear-gradient)}.cls-4{fill:#15457d}
        </style>
        <linearGradient id="linear-gradient" x1=".5" x2=".5" y2="1" gradientUnits="objectBoundingBox">
            <stop offset="0" stop-color="#b5d7ff"/>
            <stop offset=".42" stop-color="#7ebffe"/>
            <stop offset="1" stop-color="#4a90e2"/>
        </linearGradient>
    </defs>
    <g id="noun_Popsicle_1038451" transform="translate(-152 -299.978)">
        <path id="Path_400" d="M55.78 63.115v32.9c0 2.127-2.007 3.852-4.482 3.852s-4.482-1.725-4.482-3.852v-32.9" class="cls-1" data-name="Path 400" transform="translate(128.29 345.735)"/>
        <path id="Path_401" d="M87.679 30.281l-.135 14.9a4.338 4.338 0 0 1-8.676 0v13.842a4.256 4.256 0 1 1-8.511 0V49.8a3.914 3.914 0 0 1-7.829 0v-5.76a36.576 36.576 0 0 1-4.763.346A36.226 36.226 0 0 1 34.5 35.965V93.5c0 8.507 8.025 15.4 17.925 15.4h17.327c9.9 0 17.925-6.9 17.925-15.4V28.655c-.045.066.048 1.558.002 1.626z" class="cls-2" data-name="Path 401" transform="translate(118.5 300.397)"/>
        <path id="Path_402" d="M83.836 33.047c-.171.007-.339.025-.512.025A12.415 12.415 0 0 1 70.91 20.657c0-.036.005-.07.005-.1a7.956 7.956 0 0 1-6.926-7.54H52.425c-9.9 0-17.925 6.9-17.925 15.4V48.4a36.216 36.216 0 0 0 23.264 8.421 36.574 36.574 0 0 0 4.763-.346v5.76a3.914 3.914 0 1 0 7.829 0v9.224a4.256 4.256 0 1 0 8.511 0V57.612a4.338 4.338 0 0 0 8.676 0l.135-14.9V37a5.776 5.776 0 0 1-3.842-3.953z" class="cls-3" data-name="Path 402" transform="translate(118.5 287.965)"/>
        <g id="Group_116" data-name="Group 116" transform="translate(169.691 369.085)">
            <ellipse id="Ellipse_305" cx="2.187" cy="4.259" class="cls-4" data-name="Ellipse 305" rx="2.187" ry="4.259"/>
            <ellipse id="Ellipse_306" cx="2.187" cy="4.259" class="cls-4" data-name="Ellipse 306" rx="2.187" ry="4.259" transform="translate(14.505)"/>
            <ellipse id="Ellipse_307" cx="4.95" cy="4.95" class="cls-4" data-name="Ellipse 307" rx="4.95" ry="4.95" transform="translate(4.49 14.965)"/>
        </g>
    </g>
</svg>
