<?xml version="1.0" encoding="utf-8"?>
<!-- Generator: Adobe Illustrator 22.1.0, SVG Export Plug-In . SVG Version: 6.00 Build 0)  -->
<svg version="1.1" id="Layer_1" xmlns="http://www.w3.org/2000/svg" xmlns:xlink="http://www.w3.org/1999/xlink" x="0px" y="0px"
	 viewBox="0 0 32 32" style="enable-background:new 0 0 32 32;" xml:space="preserve">
<style type="text/css">
	.st0{fill:#15457D;}
</style>
<g>
	<path class="st0" d="M28.3,30c-0.5,0-0.9-0.2-1.2-0.5l-6.9-6.9c-1.9,1.4-4.3,2.2-6.7,2.2C7.1,24.8,2,19.6,2,13.4S7.1,2,13.4,2
		s11.4,5.1,11.4,11.4c0,2.4-0.8,4.8-2.2,6.7l6.9,6.9c0.3,0.3,0.5,0.8,0.5,1.2s-0.2,0.9-0.5,1.2S28.7,30,28.3,30z M13.4,5.5
		C9,5.5,5.5,9,5.5,13.4s3.5,7.9,7.9,7.9c4.3,0,7.9-3.5,7.9-7.9S17.7,5.5,13.4,5.5z"/>
</g>
</svg>
