<svg xmlns="http://www.w3.org/2000/svg" viewBox="0 0 26.946 26.946">
    <defs>
        <style>
            .cls-1{fill:none;stroke:#707070}
        </style>
    </defs>
    <g id="Wikipedia-05" transform="translate(-211.166 -705.5)">
        <path id="Rectangle_1722" d="M0 0h25.947v25.947H0z" class="cls-1" data-name="Rectangle 1722" transform="translate(211.666 706)"/>
        <g id="Group_105" data-name="Group 105" transform="translate(216.224 713.063)">
            <path id="Path_316" d="M12.01 9.08c.144-.144.144-.288.288-.432l.865-2.162c0-.144.144-.288.144-.432s0-.288-.288-.432h-.432c-.144 0-.144 0-.144-.144v-.29h2.595c.144 0 .144 0 .144.144 0 .432 0 .432-.288.432a.749.749 0 0 0-.577.288 4.509 4.509 0 0 0-.717 1.443l-1.3 2.595v.288c.577 1.441 1.3 2.739 1.874 4.18a.141.141 0 0 0 .144.144.141.141 0 0 1 .144-.144l3.027-7.784c0-.144 0-.144.144-.288.144-.432-.144-.577-.432-.721h-.577c-.144 0-.288-.288-.288-.432h3.6c.144 0 .144 0 .144.144 0 .288 0 .288-.288.432a1.256 1.256 0 0 0-1.153.865L16.911 11.1l-2.162 5.189c-.288-.144-.288.144-.577.288a.27.27 0 0 1-.432 0 .749.749 0 0 1-.289-.577c-.577-1.441-1.153-2.739-1.73-4.18v-.144l-.144.144C11 13.261 10.28 14.558 9.7 16c-.144.144-.144.288-.288.577s-.432.144-.577 0c-.144-.288-.144-.432-.288-.577-1.009-2.451-2.018-4.9-3.171-7.352-.286-.865-.576-1.73-.862-2.448a.914.914 0 0 0-.865-.721q-.649 0-.432-.432h3.747c.288 0 .432 0 .288.288 0 .144 0 .144-.144.144H6.1c0 .144-.144.288-.144.432s.144.288.144.432c.865 2.306 1.874 4.613 2.883 6.919.144.288.288.721.432 1.009a.141.141 0 0 0 .144.144c.144 0 .144 0 .144-.144a36.86 36.86 0 0 1 1.586-3.46v-.144c-.432-1.009-1.009-2.018-1.441-3.171a7.725 7.725 0 0 1-.721-1.586.666.666 0 0 0-.721-.432c-.144 0-.144 0-.288-.144V4.9h.144a19.319 19.319 0 0 0 2.883.144c0 .432 0 .432-.432.432-.288 0-.288.144-.288.432.144.288.288.721.432 1.009.432.721.721 1.441 1.153 2.162z" data-name="Path 316" transform="translate(-3.163 -4.9)"/>
        </g>
    </g>
</svg>
