<svg xmlns="http://www.w3.org/2000/svg" viewBox="0 0 68.762 82.435">
    <defs>
        <style>
            .cls-1{fill:url(#linear-gradient)}
        </style>
        <linearGradient id="linear-gradient" x1=".5" x2=".5" y2="1" gradientUnits="objectBoundingBox">
            <stop offset="0" stop-color="#b5d7ff"/>
            <stop offset=".42" stop-color="#7ebffe"/>
            <stop offset="1" stop-color="#4a90e2"/>
        </linearGradient>
    </defs>
    <g id="Brithday_Cake" data-name="Brithday Cake" transform="translate(-42.478)">
        <path id="Path_511" d="M95.284 314.131c-3.016-1.323-5.619-2.465-9.467-1.744a11.13 11.13 0 0 0-5.432 2.65 9.572 9.572 0 0 1-6.366 2.576h-.249c-3.79 0-6.416-1.811-8.739-3.413-2.195-1.513-4.09-2.821-6.719-2.634a9.273 9.273 0 0 0-5.152 2.254v23.557h65.32V310.09c-4.521 4.056-9.127 6.187-13.739 6.347-3.896.137-6.721-1.106-9.457-2.306z" class="cls-1" data-name="Path 511" transform="translate(-8.961 -260.164)"/>
        <path id="Path_512" d="M53.106 112.731a10.993 10.993 0 0 1 4.961-1.647c3.568-.256 6.043 1.449 8.434 3.1 2.238 1.542 4.347 3 7.406 2.937 2.27-.047 3.317-.868 4.766-2a13.886 13.886 0 0 1 6.6-3.177c4.669-.873 7.9.549 11.04 1.932 2.576 1.127 5.006 2.193 8.292 2.08 4.553-.161 9.2-2.642 13.832-7.385V95.484h-.068a2.14 2.14 0 0 0-1-1.439 12.107 12.107 0 0 0-3.046-1.533c-2.745-.731-5.532-1.323-8.321-1.873-1.55-.306-3.14-.417-4.772-.623V78.74a2.574 2.574 0 1 0-5.139.052c-.029 3.272-.01 6.543-.01 9.821v.824c-1.943 0-3.756.013-5.568 0-2.172-.018-2.172-.029-2.172-2.215 0-3.439.013-6.878-.011-10.319a2.565 2.565 0 0 0-4.988-.858 5.184 5.184 0 0 0-.151 1.489c-.01 3.663-.023 7.326.013 10.989 0 .71-.217.908-.9.894-1.2-.027-2.4.024-3.607.064-1.053.035-2.1.1-3.247.161v-1.009q0-4.782-.011-9.564a4.3 4.3 0 0 0-.2-1.4 2.55 2.55 0 0 0-4.93.966q-.026 5.326 0 10.654c0 .607-.161.774-.781.858-2.932.4-5.865.805-8.773 1.351a17.688 17.688 0 0 0-6.055 2.141 3.1 3.1 0 0 0-1.518 1.848h-.079v.522c-.01.111-.016.224-.016.343q.018 4.8.016 9.6v6.772zm57.922-7.545l.865.644 1.022-.346-.348 1.022.644.866-1.079-.014-.625.887-.322-1.03-1.03-.322.882-.628zm-7.084-9.047l.865.644 1.022-.346-.348 1.021.644.866-1.079-.014-.625.881-.322-1.03-1.03-.322.882-.621zm-3.371 12.781l-.013-1.079.865.644 1.022-.346-.348 1.022.644.866-1.079-.014-.625.881-.322-1.03-1.03-.322zm-8.949-7.675l.865.644 1.022-.346-.345 1.024.644.866-1.079-.014-.625.881-.322-1.03-1.03-.322.882-.621zm-9.084-5.97l-.013-1.075.865.644 1.022-.346-.345 1.032.644.866-1.079-.014-.625.881-.322-1.03-1.03-.322zm-1.188 10.317l.865.644 1.022-.346-.348 1.022.644.866-1.079-.014-.625.881-.322-1.03-1.03-.322.882-.621zm-9.1-5.194l.865.644 1.022-.346-.348 1.022.644.866-1.079-.014-.625.881-.322-1.03-1.03-.322.882-.621zm-8.05 5.935l.865.644 1.022-.346-.348 1.022.644.866-1.079-.014-.625.881-.322-1.03-1.03-.322.882-.621zm-4.528-8.665l.865.644 1.022-.346-.348 1.022.644.866-1.079-.014-.625.881-.322-1.03-1.03-.322.873-.621z" class="cls-1" data-name="Path 512" transform="translate(-8.903 -62.359)"/>
        <path id="Path_513" d="M108.791 490.48H44.637c-1.32 0-2.143.655-2.157 1.705-.014 1.082.821 1.76 2.191 1.76h64.155c1.559 0 2.391-.591 2.415-1.708.014-1.137-.841-1.757-2.45-1.757z" class="cls-1" data-name="Path 513" transform="translate(0 -411.51)"/>
        <path id="Path_514" d="M316.027 20.54a4.462 4.462 0 0 0 4.263-.016 2.049 2.049 0 0 0 1.253-2.177 10.616 10.616 0 0 0-.805-2.863 5.1 5.1 0 0 1-.291-3.974c.068-.2.127-.407.214-.681a2.888 2.888 0 0 0-.473.035c-4.136 1.1-5.523 4.587-5.474 7.761a2.172 2.172 0 0 0 1.313 1.915z" class="cls-1" data-name="Path 514" transform="translate(-228.402 -9.086)"/>
        <path id="Path_515" d="M156.163 20.525a4.476 4.476 0 0 0 3.961-.021 2.215 2.215 0 0 0 1.4-2.505 11.482 11.482 0 0 0-.873-2.764 4.708 4.708 0 0 1-.266-3.648c.087-.253.145-.517.24-.866-.267.045-.454.06-.63.109a7.3 7.3 0 0 0-5.294 7.377 2.34 2.34 0 0 0 1.462 2.318z" class="cls-1" data-name="Path 515" transform="translate(-94.153 -8.994)"/>
        <path id="Path_516" d="M235.207 9.142c1.016 1.214 3.487 1.467 5.049.564 1.235-.715 1.563-1.964.985-3.777a3.332 3.332 0 0 0-.288-.694 5.165 5.165 0 0 1-.3-5.234c-.322.04-.459.043-.589.076a7.348 7.348 0 0 0-5.364 7.951 2.386 2.386 0 0 0 .51 1.114z" class="cls-1" data-name="Path 516" transform="translate(-161.209)"/>
    </g>
</svg>
