<svg xmlns="http://www.w3.org/2000/svg" viewBox="0 0 76.464 108.882">
    <defs>
        <style>
            .cls-1,.cls-2{fill:none;fill-rule:evenodd}.cls-2{fill:url(#linear-gradient)}
        </style>
        <linearGradient id="linear-gradient" x1=".5" x2=".5" y2="1" gradientUnits="objectBoundingBox">
            <stop offset="0" stop-color="#b5d7ff"/>
            <stop offset=".42" stop-color="#7ebffe"/>
            <stop offset="1" stop-color="#4a90e2"/>
        </linearGradient>
    </defs>
    <g id="noun_cat_cute_1179225_000000" data-name="noun_cat cute_1179225_000000" transform="translate(-2.5 -.864)">
        <g id="Group_161" data-name="Group 161" transform="translate(0 75)">
            <g id="Group_160" data-name="Group 160">
                <path id="Path_517" d="M67.193 30.975a36.339 36.339 0 0 1 11.771-1.651" class="cls-1" data-name="Path 517"/>
                <path id="Path_518" d="M67.7 33.336a34.123 34.123 0 0 1 10.144-.2" class="cls-1" data-name="Path 518"/>
                <path id="Path_519" d="M16.33 31.856a18.345 18.345 0 0 1 7.908.482" class="cls-1" data-name="Path 519"/>
                <path id="Path_520" d="M16.571 34.746a16.266 16.266 0 0 1 8.138-.912" class="cls-1" data-name="Path 520"/>
                <path id="Path_521" d="M19.942-13.431c-6.051-7.241-8.573-12.22-10.795-21.3-1.223-5-1.37-11.979-.4-18.737-.361.008-.736.03-1.134.066-.526.045-1.05.108-1.574.171a26.263 26.263 0 0 1-3.018.245.52.52 0 0 1-.519-.517.519.519 0 0 1 .517-.52 25.647 25.647 0 0 0 2.9-.237c.536-.065 1.071-.13 1.607-.175a18.02 18.02 0 0 1 1.382-.073c.1-.606.208-1.22.332-1.836a12.388 12.388 0 0 0-1.182-.236 21.849 21.849 0 0 0-4.427-.271.522.522 0 0 1-.553-.483.52.52 0 0 1 .483-.552 23.018 23.018 0 0 1 4.66.282c.445.069.865.152 1.23.245.168-.77.357-1.536.566-2.286 1.676-6.027 6.809-14.285 9-14.484a.418.418 0 0 1 .059 0 .8.8 0 0 1 .557.279c1.222 1.2 1.787 5.2 1.709 6.312a.523.523 0 0 0 .189.439.518.518 0 0 0 .468.1c1.914-.535 5.508 0 7.456.487a.516.516 0 0 0 .522-.169c2.556-3.037 4.826-4.694 6.231-4.554.929.408.082 5.161-.2 6.736a.518.518 0 0 0 .153.466 12.26 12.26 0 0 1 2.927 4.637 7.726 7.726 0 0 1 2.53-1.083c.366-.1.752-.211 1.182-.366a.517.517 0 0 1 .663.312.519.519 0 0 1-.312.663c-.46.166-.863.279-1.253.389a6.558 6.558 0 0 0-2.436 1.09q.181.518.354 1.06a.527.527 0 0 1 .1-.045 11.844 11.844 0 0 1 3.907-.894.514.514 0 0 1 .545.491.519.519 0 0 1-.49.545 10.9 10.9 0 0 0-3.615.835.52.52 0 0 1-.143.029c.147.484.293.98.444 1.487.41 1.387.834 2.821 1.365 4.345a41.634 41.634 0 0 0 2.219 5.277 38.716 38.716 0 0 0 5.779 8.4c.322.362.92.956 1.677 1.709C55.447-31.337 65.66-21.176 62.379-17.6c-1.024 1.12-3.15.231-4.754-.712a28.144 28.144 0 0 1-4.208-3.143.043.043 0 0 1 0-.007 5.845 5.845 0 0 0 .116-1.643c-.006-.229-.012-.458 0-.686a.518.518 0 0 0-.5-.537.5.5 0 0 0-.537.5c-.009.249 0 .5 0 .751a4.981 4.981 0 0 1-.085 1.358.509.509 0 0 0 .011.266.485.485 0 0 0-.052.176 11.409 11.409 0 0 1-1.919 5.308 13.246 13.246 0 0 1-3.72 3.666 15.838 15.838 0 0 1-4.657 2.09c-.278-.348-.545-.668-.805-.98a23.013 23.013 0 0 1-1.623-2.1.517.517 0 0 0-.718-.143.518.518 0 0 0-.144.718 23.826 23.826 0 0 0 1.69 2.193c.272.326.552.66.845 1.029a.5.5 0 0 0 .145.116v.013a13.771 13.771 0 0 0 2.623 2.921c1.942 1.8 3.067 2.982 2.313 4.16a3.327 3.327 0 0 1-2.813 1.4C36.758-.456 23-9.776 19.942-13.431zm35.57 7.181c-2.044-.765-6.869-4.182-7.783-5.493a14.271 14.271 0 0 0 3.159-3.072c2.329 3.327 8.273 6.287 12.574 5.213a7.411 7.411 0 0 0 4.775-3.839c1.245-2.488.409-4.835-.2-6.548-.36-1.012-.671-1.887-.427-2.365a1.36 1.36 0 0 1 .893-.567 1.71 1.71 0 0 1 1.762.726c1.947 2.166 2.868 7.481 1.76 10.157-2.688 6.48-8.86 8.644-16.513 5.788zm-27.8-30.9a.517.517 0 0 0 .2-.7 5.084 5.084 0 0 1 .387-3.358c.064.027.142.063.206.093a4 4 0 0 0 3.823.025 3.2 3.2 0 0 0 1.857-3.584 6.41 6.41 0 0 0-5.323-4.726 8.338 8.338 0 0 0-6.692 2.189 10.282 10.282 0 0 0-3.24 7.691.518.518 0 0 0 .529.507.518.518 0 0 0 .508-.528 9.357 9.357 0 0 1 2.9-6.906 7.325 7.325 0 0 1 5.883-1.921 5.372 5.372 0 0 1 4.412 3.881 2.16 2.16 0 0 1-1.312 2.47 2.991 2.991 0 0 1-2.917-.047c-.121-.055-.24-.1-.358-.146a.5.5 0 0 0-.2-.239 3.887 3.887 0 0 1-1.077-.813 8.217 8.217 0 0 0-.667-.621.518.518 0 0 0-.73.067.518.518 0 0 0 .066.73 7.061 7.061 0 0 1 .589.549 4.507 4.507 0 0 0 .911.75 5.68 5.68 0 0 0-.459 4.438.518.518 0 0 0 .453.265.514.514 0 0 0 .252-.068zm17.3-8.713a40.209 40.209 0 0 1-1.931-4.55.484.484 0 0 0 .122-.026 7.752 7.752 0 0 1 6.977 1.113 3.038 3.038 0 0 1 1.081 3.22 1.924 1.924 0 0 1-1.394 1.506 5.94 5.94 0 0 1-4.856-1.265zm-15.236-9.631c0-.56-.781-1.017-1.742-1.017s-1.736.457-1.736 1.017.781 1.009 1.736 1.009 1.742-.449 1.742-1.009zm-7.626-1.929a1.99 1.99 0 0 0-1.88-2.077 1.99 1.99 0 0 0-1.88 2.081 1.988 1.988 0 0 0 1.88 2.074 1.988 1.988 0 0 0 1.88-2.078zm13.4-.1a1.984 1.984 0 0 0-1.873-2.074A1.984 1.984 0 0 0 31.8-57.52a1.988 1.988 0 0 0 1.88 2.074 1.988 1.988 0 0 0 1.874-2.074z" class="cls-2" data-name="Path 521"/>
            </g>
        </g>
    </g>
</svg>
