<svg xmlns="http://www.w3.org/2000/svg" viewBox="0 0 84 95.305">
    <defs>
        <style>
            .cls-1{fill:url(#linear-gradient)}
        </style>
        <linearGradient id="linear-gradient" x1=".5" x2=".5" y2="1" gradientUnits="objectBoundingBox">
            <stop offset="0" stop-color="#b5d7ff"/>
            <stop offset=".42" stop-color="#7ebffe"/>
            <stop offset="1" stop-color="#4a90e2"/>
        </linearGradient>
    </defs>
    <g id="FAN" transform="translate(-6 -.348)">
        <path id="Path_449" d="M50.66 32.252c.008.184.016.328.02.5a9.89 9.89 0 0 1 1.928.768 21.131 21.131 0 0 0 1.781-10.5c-.525-6.6-2.625-10.6-5.629-10.692a1.482 1.482 0 0 0-.552.048c-.084.184-.5 1.5 1.076 7.932a59.2 59.2 0 0 1 1.376 11.944z" class="cls-1" data-name="Path 449"/>
        <path id="Path_450" d="M38.028 42.032A20.434 20.434 0 0 0 27.292 45.7c-5.62 3.884-6.5 6.292-6.62 7.147A1.5 1.5 0 0 0 21 54.079c.364.439.5.456.576.46.42.04 2-.272 6.52-4.08a55.6 55.6 0 0 1 9.84-6.3l.24-.128A10.208 10.208 0 0 1 38 42.348c0-.108.024-.208.028-.316z" class="cls-1" data-name="Path 450"/>
        <path id="Path_451" d="M48 .348a42 42 0 1 0 42 42 42.046 42.046 0 0 0-42-42zm29.557 58.216A9.625 9.625 0 0 1 69.32 62.8a23.04 23.04 0 0 1-8.236-1.876A24.365 24.365 0 0 1 50.1 52.12a9.912 9.912 0 0 1-10.468-4.325 51.708 51.708 0 0 0-8.96 5.731c-4.192 3.524-6.852 5.021-9.024 5.021a3.93 3.93 0 0 1-.4-.021A4.71 4.71 0 0 1 18 56.619a5.389 5.389 0 0 1-1.092-4.32c.428-3.084 3.348-6.316 8.5-9.884a24.826 24.826 0 0 1 14.4-4.388 10.348 10.348 0 0 1 8.444-5.544v-.064c0-3.216-1.092-7.216-2.056-11.14-1.636-6.656-2.5-9.656-1.024-11.468a4.386 4.386 0 0 1 3.712-1.46c2.512.084 8.471 1.636 9.487 14.368a24.616 24.616 0 0 1-2.592 13.44A9.9 9.9 0 0 1 58 42.352a10.071 10.071 0 0 1-.584 3.252 50.731 50.731 0 0 0 11.256 3.44c6.172.96 9.072 2.272 10 4.524.912 2.22-.608 4.3-1.115 5z" class="cls-1" data-name="Path 451"/>
        <path id="Path_452" d="M54 42.348a6 6 0 1 1-6-6 6 6 0 0 1 6 6z" class="cls-1" data-name="Path 452"/>
        <path id="Path_453" d="M55.492 49.145l-.156-.061a9.554 9.554 0 0 1-1.557 1.393 20.229 20.229 0 0 0 8.765 6.723c8.572 3.372 10.584.632 11.78-1.005.615-.836.624-1.147.624-1.168-.048-.035-.8-1.084-6.9-2.031a56.829 56.829 0 0 1-12.556-3.851z" class="cls-1" data-name="Path 453"/>
        <path id="Path_454" d="M71.092 91.656c-1.688 0-3.416-3.7-4.336-7.348a45.64 45.64 0 0 1-37.052.22c-.932 3.572-2.62 7.108-4.264 7.108a2.009 2.009 0 0 0 0 4.017H71.1a2 2 0 1 0 0-4z" class="cls-1" data-name="Path 454"/>
    </g>
</svg>
