<svg xmlns="http://www.w3.org/2000/svg" viewBox="0 0 56.569 73.928">
    <defs>
        <style>
            .cls-1{fill:url(#linear-gradient)}
        </style>
        <linearGradient id="linear-gradient" x1=".5" x2=".5" y2="1" gradientUnits="objectBoundingBox">
            <stop offset="0" stop-color="#b5d7ff"/>
            <stop offset=".42" stop-color="#7ebffe"/>
            <stop offset="1" stop-color="#4a90e2"/>
        </linearGradient>
    </defs>
    <path id="Fingers_Crossed" d="M33.112 14.239L35.869 3.17a7.932 7.932 0 0 1 .478-1.239 3.007 3.007 0 0 0-3.479-.6c-2 .812-2.68 2.673-2.022 5.162zm31.608 9.977a3.728 3.728 0 0 0-3.728 3.73v5.594a1.866 1.866 0 0 1-3.731 0v-9.322a3.73 3.73 0 1 0-7.46 0v9.321a1.861 1.861 0 0 1-1.543 1.833c-.578-.039-1.061-.267-1.428-1.334l-3.97-13.547-3.469 13.938c-.122.629-.628.988-.979.853-.719-.281-.7-.887-.479-1.715L44.78 5.812C45.329 3.3 44.642.834 42.547.319 40.379-.214 38.32.774 37.5 3.6l-7.4 29.965-2.737 10.428a3.9 3.9 0 0 1-3.984 3.13 4.044 4.044 0 0 1-4.042-4.046v-7.553a3.728 3.728 0 0 0-7.456 0v9.223l.041 2.379a28.462 28.462 0 0 0 56.528 3.009v-22.19a3.73 3.73 0 0 0-3.73-3.729z" class="cls-1" data-name="Fingers Crossed" transform="translate(-11.88 -.181)"/>
</svg>
