<svg xmlns="http://www.w3.org/2000/svg" viewBox="0 0 84.497 85.618">
    <defs>
        <style>
            .cls-1{fill-rule:evenodd;fill:url(#linear-gradient)}
        </style>
        <linearGradient id="linear-gradient" x1=".5" x2=".5" y2="1" gradientUnits="objectBoundingBox">
            <stop offset="0" stop-color="#b5d7ff"/>
            <stop offset=".42" stop-color="#7ebffe"/>
            <stop offset="1" stop-color="#4a90e2"/>
        </linearGradient>
    </defs>
    <g id="fireworks_" data-name="fireworks" transform="translate(-5.752 -5.753)">
        <g id="Group_164" data-name="Group 164" transform="translate(0 96)">
            <g id="Group_163" data-name="Group 163">
                <path id="Path_559" d="M48.3-5.221c-4.83-8.985-4.568-15.681-3.452-22.151 1.111-6.445 2.965-12.354 1.66-20.322a1.126 1.126 0 0 1 .929-1.292 1.126 1.126 0 0 1 1.292.929c1.383 8.451-.6 14.906-1.664 21.068C46-20.851 45.756-14.7 50.278-6.286a1.125 1.125 0 0 1-.458 1.523 1.125 1.125 0 0 1-1.52-.458zM29.621-23.834l-.006-.109a1.11 1.11 0 0 1 1.05-1.164 1.109 1.109 0 0 1 1.164 1.051v.1a1.108 1.108 0 0 1-1.048 1.165 1.108 1.108 0 0 1-1.16-1.043zm32.59-.117c0-.035 0-.07.005-.1a1.109 1.109 0 0 1 1.164-1.051 1.11 1.11 0 0 1 1.05 1.164l-.006.109a1.108 1.108 0 0 1-1.165 1.048 1.108 1.108 0 0 1-1.048-1.17zm-32.647-4.516A42.954 42.954 0 0 1 29.942-33a1.109 1.109 0 0 1 1.251-.945 1.111 1.111 0 0 1 .945 1.252 40.284 40.284 0 0 0-.358 4.3 1.108 1.108 0 0 1-1.143 1.073 1.11 1.11 0 0 1-1.073-1.147zm32.7.07a40.286 40.286 0 0 0-.358-4.3 1.111 1.111 0 0 1 .945-1.252A1.109 1.109 0 0 1 64.1-33a42.954 42.954 0 0 1 .378 4.535 1.11 1.11 0 0 1-1.073 1.143 1.108 1.108 0 0 1-1.14-1.078zm-46.633-.641l-.03-.414a1.108 1.108 0 0 1 1.031-1.181 1.108 1.108 0 0 1 1.181 1.03l.029.4a1.109 1.109 0 0 1-1.021 1.19 1.109 1.109 0 0 1-1.189-1.025zm60.57-.169l.029-.4a1.108 1.108 0 0 1 1.181-1.03 1.108 1.108 0 0 1 1.031 1.181l-.03.414a1.109 1.109 0 0 1-1.19 1.021 1.109 1.109 0 0 1-1.022-1.186zM15.525-34a32.477 32.477 0 0 1 .484-4.56 1.109 1.109 0 0 1 1.288-.893 1.109 1.109 0 0 1 .893 1.288 30.345 30.345 0 0 0-.45 4.251 1.109 1.109 0 0 1-1.151 1.065A1.109 1.109 0 0 1 15.525-34zm60.78.086a30.345 30.345 0 0 0-.45-4.251 1.109 1.109 0 0 1 .893-1.288 1.109 1.109 0 0 1 1.288.893A32.477 32.477 0 0 1 78.52-34a1.109 1.109 0 0 1-1.064 1.151 1.109 1.109 0 0 1-1.151-1.067zm-52.815-1.58a3.008 3.008 0 0 1-1.628-3.927 3.008 3.008 0 0 1 3.928-1.627 3.008 3.008 0 0 1 1.628 3.928 3.007 3.007 0 0 1-3.928 1.626zm7.387-2a25.531 25.531 0 0 1 1.656-4.323 1.109 1.109 0 0 1 1.486-.5 1.108 1.108 0 0 1 .5 1.485 23.242 23.242 0 0 0-1.51 3.948 1.109 1.109 0 0 1-1.37.761 1.109 1.109 0 0 1-.762-1.368zm30.159.61a23.242 23.242 0 0 0-1.51-3.948 1.108 1.108 0 0 1 .5-1.485 1.109 1.109 0 0 1 1.486.5 25.531 25.531 0 0 1 1.656 4.323 1.109 1.109 0 0 1-.762 1.371 1.109 1.109 0 0 1-1.37-.758zm-21.476-.761a1.7 1.7 0 0 1-.922-2.225 1.7 1.7 0 0 1 2.226-.922 1.7 1.7 0 0 1 .922 2.226 1.7 1.7 0 0 1-2.226.921zm25.618-3.464a2.463 2.463 0 0 1-1.333-3.217 2.464 2.464 0 0 1 3.217-1.332 2.464 2.464 0 0 1 1.333 3.217 2.464 2.464 0 0 1-3.217 1.332zm-47.935-1.922a18.991 18.991 0 0 1 2.2-4.15 1.109 1.109 0 0 1 1.545-.265 1.109 1.109 0 0 1 .266 1.545 16.769 16.769 0 0 0-1.941 3.668 1.109 1.109 0 0 1-1.433.635 1.108 1.108 0 0 1-.637-1.433zm57.491.8a16.769 16.769 0 0 0-1.941-3.669 1.109 1.109 0 0 1 .266-1.545 1.109 1.109 0 0 1 1.545.265 18.991 18.991 0 0 1 2.2 4.15 1.108 1.108 0 0 1-.635 1.433 1.109 1.109 0 0 1-1.435-.636zm-39.523-1.958a1.109 1.109 0 0 1-.158-1.56A19.144 19.144 0 0 1 38.441-49a1.108 1.108 0 0 1 1.551.224 1.108 1.108 0 0 1-.224 1.551 17.059 17.059 0 0 0-3 2.874 1.108 1.108 0 0 1-1.557.162zm22.064-.158a17.059 17.059 0 0 0-3-2.874 1.108 1.108 0 0 1-.224-1.551A1.108 1.108 0 0 1 55.6-49a19.144 19.144 0 0 1 3.388 3.247 1.109 1.109 0 0 1-.158 1.56 1.108 1.108 0 0 1-1.555-.154zm-34.762-4.717a1.109 1.109 0 0 1 .187-1.556 16.841 16.841 0 0 1 4.1-2.362 1.11 1.11 0 0 1 1.444.61 1.109 1.109 0 0 1-.61 1.444 14.628 14.628 0 0 0-3.561 2.051 1.11 1.11 0 0 1-1.56-.187zm47.462.187a14.627 14.627 0 0 0-3.561-2.051 1.109 1.109 0 0 1-.61-1.444 1.11 1.11 0 0 1 1.444-.61 16.841 16.841 0 0 1 4.1 2.362 1.109 1.109 0 0 1 .187 1.556 1.11 1.11 0 0 1-1.56.187zm-27.614-.639l.974-5.681-4.128-4.024 5.7-.828 2.551-5.169 2.551 5.169 5.7.829-4.119 4.02.974 5.681-5.1-2.682zm-11.973-3.429a1.108 1.108 0 0 1 .922-1.268 26.988 26.988 0 0 1 4.608-.31A1.11 1.11 0 0 1 37.01-53.4a1.11 1.11 0 0 1-1.125 1.092 24.847 24.847 0 0 0-4.229.282 1.109 1.109 0 0 1-1.268-.919zm27.772.639a1.11 1.11 0 0 1-1.125-1.094 1.11 1.11 0 0 1 1.092-1.125 26.988 26.988 0 0 1 4.608.31 1.108 1.108 0 0 1 .922 1.268 1.109 1.109 0 0 1-1.268.921 24.847 24.847 0 0 0-4.229-.28zm-38.86-.389a2.092 2.092 0 0 1-1.132-2.732 2.091 2.091 0 0 1 2.732-1.132 2.093 2.093 0 0 1 1.133 2.733 2.093 2.093 0 0 1-2.733 1.131zM10-54.319a1.108 1.108 0 0 1-.2-1.555q.236-.3.476-.6a1.109 1.109 0 0 1 1.56-.157 1.108 1.108 0 0 1 .158 1.559q-.222.271-.441.555a1.108 1.108 0 0 1-1.553.198zm72.492-.2q-.219-.284-.441-.555a1.108 1.108 0 0 1 .158-1.559 1.109 1.109 0 0 1 1.56.157q.24.3.476.6a1.108 1.108 0 0 1-.2 1.555 1.108 1.108 0 0 1-1.554-.196zm-12.022-.1a2.2 2.2 0 0 1-1.192-2.881 2.2 2.2 0 0 1 2.875-1.19 2.2 2.2 0 0 1 1.191 2.875 2.2 2.2 0 0 1-2.875 1.194zm-57.088-3.607a1.108 1.108 0 0 1 .138-1.561 18.975 18.975 0 0 1 3.932-2.567 1.109 1.109 0 0 1 1.481.515 1.11 1.11 0 0 1-.516 1.481 16.843 16.843 0 0 0-3.473 2.27 1.109 1.109 0 0 1-1.562-.138zm65.719.138a16.843 16.843 0 0 0-3.473-2.27 1.11 1.11 0 0 1-.516-1.481 1.109 1.109 0 0 1 1.481-.515 18.975 18.975 0 0 1 3.932 2.567 1.108 1.108 0 0 1 .138 1.561 1.109 1.109 0 0 1-1.563.138zm-44.778-.793a24.733 24.733 0 0 0-3.838-1.8 1.109 1.109 0 0 1-.664-1.42 1.11 1.11 0 0 1 1.421-.664 27.076 27.076 0 0 1 4.182 1.959 1.109 1.109 0 0 1 .412 1.513 1.109 1.109 0 0 1-1.513.412zm23.886-.412a1.109 1.109 0 0 1 .412-1.513 27.076 27.076 0 0 1 4.179-1.959 1.11 1.11 0 0 1 1.421.664 1.109 1.109 0 0 1-.664 1.42 24.733 24.733 0 0 0-3.838 1.8 1.109 1.109 0 0 1-1.51-.412zm-37.157-3.223a1.108 1.108 0 0 1 .917-1.271 16.821 16.821 0 0 1 4.728-.084 1.109 1.109 0 0 1 .968 1.233 1.109 1.109 0 0 1-1.233.969 14.59 14.59 0 0 0-4.108.07 1.109 1.109 0 0 1-1.272-.917zm50.669.917a14.59 14.59 0 0 0-4.108-.07 1.109 1.109 0 0 1-1.233-.969 1.109 1.109 0 0 1 .968-1.233 16.821 16.821 0 0 1 4.728.084 1.108 1.108 0 0 1 .917 1.271 1.109 1.109 0 0 1-1.272.916zM38.937-64.16a46.632 46.632 0 0 0-3.341-2.754 1.108 1.108 0 0 1-.229-1.551 1.108 1.108 0 0 1 1.55-.229c1.2.89 2.362 1.862 3.5 2.883a1.111 1.111 0 0 1 .085 1.566 1.111 1.111 0 0 1-1.565.085zm14.6-.085a1.111 1.111 0 0 1 .085-1.566 49.017 49.017 0 0 1 3.5-2.883 1.108 1.108 0 0 1 1.55.229 1.108 1.108 0 0 1-.229 1.551 46.854 46.854 0 0 0-3.341 2.754 1.111 1.111 0 0 1-1.56-.085zm-46.269.168a2.463 2.463 0 0 1-1.328-3.217 2.464 2.464 0 0 1 3.217-1.332 2.464 2.464 0 0 1 1.333 3.217 2.464 2.464 0 0 1-3.217 1.332zm78.576-2.028a3.184 3.184 0 0 1-1.722-4.157 3.183 3.183 0 0 1 4.157-1.721 3.184 3.184 0 0 1 1.723 4.156 3.184 3.184 0 0 1-4.153 1.722zm-42.5-1.446a40.017 40.017 0 0 0-1.889-3.876 1.109 1.109 0 0 1 .432-1.507 1.109 1.109 0 0 1 1.513.434 41.831 41.831 0 0 1 1.993 4.092 1.108 1.108 0 0 1-.592 1.451 1.108 1.108 0 0 1-1.455-.594zm5.9.592a1.108 1.108 0 0 1-.592-1.451 41.831 41.831 0 0 1 1.997-4.09 1.109 1.109 0 0 1 1.507-.432 1.109 1.109 0 0 1 .432 1.507 40.016 40.016 0 0 0-1.888 3.874 1.108 1.108 0 0 1-1.452.592zM32-69.213a19.306 19.306 0 0 0-3.877-1.577 1.11 1.11 0 0 1-.769-1.367 1.11 1.11 0 0 1 1.366-.769 21.577 21.577 0 0 1 4.322 1.756 1.109 1.109 0 0 1 .458 1.5 1.109 1.109 0 0 1-1.5.457zm28.537-.458A1.109 1.109 0 0 1 61-71.17a21.577 21.577 0 0 1 4.322-1.756 1.11 1.11 0 0 1 1.366.769 1.11 1.11 0 0 1-.769 1.367 19.305 19.305 0 0 0-3.877 1.577 1.109 1.109 0 0 1-1.501-.458zm-46.222-.343a1.109 1.109 0 0 1 .545-1.47l.152-.069a1.109 1.109 0 0 1 1.471.553 1.11 1.11 0 0 1-.554 1.466l-.14.064a1.109 1.109 0 0 1-1.47-.544zm63.937.545l-.14-.064a1.11 1.11 0 0 1-.55-1.467 1.109 1.109 0 0 1 1.467-.554l.152.069a1.109 1.109 0 0 1 .545 1.47 1.109 1.109 0 0 1-1.47.546zm-59.675-2.267a1.109 1.109 0 0 1 .823-1.334 19.1 19.1 0 0 1 4.664-.532 1.109 1.109 0 0 1 1.094 1.123 1.107 1.107 0 0 1-1.122 1.094 16.893 16.893 0 0 0-4.125.472 1.109 1.109 0 0 1-1.334-.823zm51.432.351a1.107 1.107 0 0 1-1.122-1.094 1.109 1.109 0 0 1 1.094-1.121 19.1 19.1 0 0 1 4.664.532 1.109 1.109 0 0 1 .823 1.334 1.109 1.109 0 0 1-1.334.823 16.893 16.893 0 0 0-4.125-.474zM39.176-75.1a46.88 46.88 0 0 0-2.621-3.447 1.11 1.11 0 0 1 .145-1.563 1.108 1.108 0 0 1 1.561.141 47.757 47.757 0 0 1 2.744 3.61 1.107 1.107 0 0 1-.283 1.541 1.108 1.108 0 0 1-1.546-.282zm14.151.283a1.107 1.107 0 0 1-.283-1.541 49.117 49.117 0 0 1 2.744-3.61 1.108 1.108 0 0 1 1.561-.141 1.11 1.11 0 0 1 .141 1.562 46.88 46.88 0 0 0-2.621 3.447 1.108 1.108 0 0 1-1.542.282zm12.741-1.928a2.2 2.2 0 0 1-1.191-2.875 2.2 2.2 0 0 1 2.875-1.19 2.2 2.2 0 0 1 1.191 2.875 2.2 2.2 0 0 1-2.875 1.189zm-40.251-1.707a2.092 2.092 0 0 1-1.132-2.732 2.091 2.091 0 0 1 2.732-1.132 2.093 2.093 0 0 1 1.133 2.733 2.093 2.093 0 0 1-2.733 1.131zm7.814-3.291q-1.53-1.526-3.2-2.912a1.109 1.109 0 0 1-.148-1.561 1.11 1.11 0 0 1 1.561-.148 48.615 48.615 0 0 1 3.356 3.051 1.108 1.108 0 0 1 0 1.567 1.108 1.108 0 0 1-1.569.003zm25.216 0a1.108 1.108 0 0 1 0-1.567 48.615 48.615 0 0 1 3.356-3.051 1.11 1.11 0 0 1 1.561.148 1.109 1.109 0 0 1-.148 1.561q-1.673 1.381-3.2 2.912a1.108 1.108 0 0 1-1.569-.006zm-12.508-2.365a3.194 3.194 0 0 1-1.728-4.169A3.192 3.192 0 0 1 48.78-90a3.192 3.192 0 0 1 1.728 4.168 3.194 3.194 0 0 1-4.169 1.724zm-19.374-3.137l-.163-.109a1.109 1.109 0 0 1-.308-1.537 1.109 1.109 0 0 1 1.537-.308l.172.115a1.11 1.11 0 0 1 .3 1.539 1.11 1.11 0 0 1-1.538.3zm38.576-.3a1.11 1.11 0 0 1 .3-1.539l.172-.115a1.109 1.109 0 0 1 1.537.308 1.109 1.109 0 0 1-.308 1.537l-.163.109a1.11 1.11 0 0 1-1.538-.3z" class="cls-1" data-name="Path 559"/>
            </g>
        </g>
    </g>
</svg>
