<svg xmlns="http://www.w3.org/2000/svg" viewBox="0 0 56 88">
    <defs>
        <style>
            .cls-1{fill:url(#linear-gradient)}
        </style>
        <linearGradient id="linear-gradient" x1=".5" x2=".5" y2="1" gradientUnits="objectBoundingBox">
            <stop offset="0" stop-color="#b5d7ff"/>
            <stop offset=".42" stop-color="#7ebffe"/>
            <stop offset="1" stop-color="#4a90e2"/>
        </linearGradient>
    </defs>
    <g id="FLAG" transform="translate(-22 -958.362)">
        <path id="Path_460" d="M47.72 958.362c-3.49 0-6.65 2.164-9.711 4.171-2.678 1.756-5.291 3.382-7.663 3.763v-4.924a.994.994 0 1 0-1.986 0c.2 25.852 0 64.918.031 77.588-3.6.241-6.391 1.819-6.391 3.7 0 2.046 3.3 3.7 7.353 3.7s7.384-1.654 7.384-3.7c0-1.881-2.824-3.459-6.422-3.7.031-12.67.031-25.683.031-38.512 3.056-.366 5.878-2.328 8.594-4.14 3.009-2.007 5.9-3.826 8.47-3.826 3.69 0 9.1 1.463 14.582 2.478 6.081 1.223 11.321 1.375 16.009-.878v-35.72c-4.529 3.721-10.99 3.58-15.513 2.76-5.269-.987-10.584-2.76-14.768-2.76zm-3.475 2.854v5.927a36.257 36.257 0 0 0-5.957 3.1V964.7a52.151 52.151 0 0 1 5.957-3.484zm9.928.125c1.879.421 3.9.909 5.957 1.349v5.739c-1.948-.488-3.9-1.012-5.957-1.411zm21.841.659v6.617a24.106 24.106 0 0 1-5.957 1.1v-6.053A14.96 14.96 0 0 0 76.014 962zm-23.827 6.711v5.99a20.319 20.319 0 0 0-5.957-.094v-5.959a16.49 16.49 0 0 1 5.957.062zm9.928 2.258a32.893 32.893 0 0 0 5.957.753v6.053a32.072 32.072 0 0 1-5.957-.847zM36.3 973.792v5.645a25.311 25.311 0 0 1-5.957 2.854v-5.959a17.276 17.276 0 0 0 5.957-2.54zm17.87 3.293c1.985.41 3.947.949 5.957 1.443v5.959c-1.948-.488-3.9-1.012-5.957-1.411zm-9.928.282v5.833a36.257 36.257 0 0 0-5.957 3.1v-5.7a60.035 60.035 0 0 1 5.957-3.23zm31.769 1.38v5.927a24.106 24.106 0 0 1-5.957 1.1v-6.024a25.87 25.87 0 0 0 5.96-1.003zm-23.827 6.021v6.178a24.092 24.092 0 0 0-5.957-.376v-5.865a16.535 16.535 0 0 1 5.957.062zm9.928 2.258a32.9 32.9 0 0 0 5.957.753v5.959a54.591 54.591 0 0 1-5.957-.815v-5.9zM36.3 989.849v5.771a17.152 17.152 0 0 1-5.957 2.791v-6.021a17.273 17.273 0 0 0 5.957-2.54z" class="cls-1" data-name="Path 460"/>
    </g>
</svg>
