<svg xmlns="http://www.w3.org/2000/svg" viewBox="0 0 95.846 95.605">
    <defs>
        <style>
            .cls-1{fill:url(#linear-gradient)}
        </style>
        <linearGradient id="linear-gradient" x1=".5" x2=".5" y2="1" gradientUnits="objectBoundingBox">
            <stop offset="0" stop-color="#b5d7ff"/>
            <stop offset=".42" stop-color="#7ebffe"/>
            <stop offset="1" stop-color="#4a90e2"/>
        </linearGradient>
    </defs>
    <g id="Game_02" data-name="Game 02" transform="translate(0 -.073)">
        <path id="Path_447" d="M60.523 47.664L38.375 37.09a12.975 12.975 0 0 0-5.409-1.065 12.975 12.975 0 0 0-5.409 1.065L5.409 47.664A10.4 10.4 0 0 0 0 56.24v25.47a11.41 11.41 0 0 0 5.212 8.955l22.543 12.807a10.807 10.807 0 0 0 5.212 1.221 10.807 10.807 0 0 0 5.212-1.221L60.72 90.665a11.41 11.41 0 0 0 5.212-8.955V56.24a10.4 10.4 0 0 0-5.409-8.576zm-27.557.829c2.9 0 5.245 1.342 5.245 3s-2.348 3-5.245 3-5.245-1.342-5.245-3 2.349-3 5.245-3zM11.829 86.718a2.254 2.254 0 0 1-1.012.235c-1.532 0-3.248-1.446-4.186-3.7-1.154-2.766-.7-5.7 1.019-6.557a2.248 2.248 0 0 1 1.012-.235c1.532 0 3.248 1.446 4.186 3.7 1.152 2.767.698 5.702-1.019 6.557zm0-16.483a2.25 2.25 0 0 1-1.012.235c-1.532 0-3.248-1.446-4.186-3.7-1.154-2.766-.7-5.7 1.019-6.557a2.248 2.248 0 0 1 1.012-.235c1.532 0 3.248 1.446 4.186 3.7 1.152 2.767.698 5.702-1.019 6.557zM26.813 94.96a2.254 2.254 0 0 1-1.013.24c-1.532 0-3.248-1.446-4.186-3.7-1.154-2.766-.7-5.7 1.019-6.557a2.247 2.247 0 0 1 1.012-.235c1.532 0 3.248 1.446 4.186 3.7 1.156 2.761.7 5.692-1.018 6.552zm0-16.483a2.25 2.25 0 0 1-1.012.235c-1.532 0-3.248-1.446-4.186-3.7-1.154-2.766-.7-5.7 1.019-6.557a2.249 2.249 0 0 1 1.012-.235c1.532 0 3.248 1.446 4.186 3.7 1.155 2.766.699 5.702-1.019 6.557zM44.316 91.5c-.939 2.251-2.655 3.7-4.186 3.7a2.25 2.25 0 0 1-1.012-.235C37.4 94.1 36.944 91.169 38.1 88.4c.938-2.251 2.654-3.7 4.186-3.7a2.248 2.248 0 0 1 1.012.235c1.716.865 2.172 3.797 1.018 6.565zm0-16.483c-.939 2.251-2.655 3.7-4.186 3.7a2.25 2.25 0 0 1-1.012-.235c-1.717-.855-2.174-3.791-1.02-6.557.938-2.251 2.654-3.7 4.186-3.7a2.248 2.248 0 0 1 1.012.235c1.718.853 2.174 3.789 1.02 6.555zM59.3 83.256c-.939 2.251-2.655 3.7-4.186 3.7a2.25 2.25 0 0 1-1.012-.235c-1.717-.855-2.174-3.791-1.02-6.557.938-2.251 2.654-3.7 4.186-3.7a2.248 2.248 0 0 1 1.012.235c1.72.856 2.175 3.791 1.02 6.557zm0-16.483c-.939 2.251-2.655 3.7-4.186 3.7a2.25 2.25 0 0 1-1.012-.235c-1.717-.855-2.174-3.791-1.02-6.557.938-2.251 2.654-3.7 4.186-3.7a2.248 2.248 0 0 1 1.012.235c1.72.856 2.175 3.791 1.02 6.557zm2.2-12.564l-27.041 14.9v31.331a1.5 1.5 0 0 1-3 0V69.221L4.21 53.989a1.5 1.5 0 0 1 1.457-2.619l27.2 15.2 27.189-14.984a1.5 1.5 0 1 1 1.449 2.623z" class="cls-1" data-name="Path 447" transform="translate(0 -9.016)"/>
        <path id="Path_448" d="M95.755 16.4a14.264 14.264 0 0 0-7.649-7.649L64.819.518a8.428 8.428 0 0 0-2.8-.445 10.431 10.431 0 0 0-7.089 2.685L36.8 20.883a10.571 10.571 0 0 0-2.545 4.772l.6-.285a15.916 15.916 0 0 1 6.7-1.358c.223 0 .443.008.664.016a4.123 4.123 0 0 1 2.845-1.528 2.171 2.171 0 0 1 .731.123 2.865 2.865 0 0 1 1.679 2.416c.27.1.533.215.784.336l9.457 4.515c1.018-1.758 2.5-2.894 3.833-2.894a2.164 2.164 0 0 1 .731.123c1.622.575 2.194 3.016 1.4 5.618l3.9 1.863.77-.777-8.136-29.076a1.5 1.5 0 0 1 2.887-.813l8.217 29.358 29.164 8.318a1.5 1.5 0 0 1-.411 2.939c-.122 0-23.873-6.754-28.861-8.173a13.129 13.129 0 0 1 4.268 4.291A2.4 2.4 0 0 1 77.12 44.4a10.864 10.864 0 0 1 .4 2.823v23.286a11.132 11.132 0 0 0 6.108-2.8l18.125-18.125a10.4 10.4 0 0 0 2.24-9.889zm-36.789 1.066c-.951 2.1-2.812 3.53-4.432 3.53a2.509 2.509 0 0 1-.731-.106c-1.753-.533-2.282-2.931-1.183-5.355.951-2.1 2.812-3.53 4.432-3.53a2.508 2.508 0 0 1 .731.106c1.753.534 2.282 2.932 1.183 5.355zm26.2 10.43a2.214 2.214 0 0 1-1.615.592 6.967 6.967 0 0 1-4.517-2.266c-2.155-2.155-2.9-4.9-1.673-6.132a2.217 2.217 0 0 1 1.618-.593 6.965 6.965 0 0 1 4.521 2.266c2.152 2.156 2.9 4.901 1.668 6.137zm4.717 23.995a8.069 8.069 0 0 1-2.883.573c-1.643 0-2.956-.622-3.359-1.756-.622-1.753 1.166-4.065 3.995-5.164a8.068 8.068 0 0 1 2.889-.573c1.643 0 2.957.622 3.359 1.757.616 1.753-1.17 4.065-3.999 5.163z" class="cls-1" data-name="Path 448" transform="translate(-8.592)"/>
    </g>
</svg>
