<svg xmlns="http://www.w3.org/2000/svg" viewBox="0 0 88.288 90.38">
    <defs>
        <style>
            .cls-1{fill:url(#linear-gradient)}
        </style>
        <linearGradient id="linear-gradient" x1=".5" x2=".5" y2="1" gradientUnits="objectBoundingBox">
            <stop offset="0" stop-color="#b5d7ff"/>
            <stop offset=".42" stop-color="#7ebffe"/>
            <stop offset="1" stop-color="#4a90e2"/>
        </linearGradient>
    </defs>
    <g id="Game_01" data-name="Game 01" transform="translate(-4.723 -5.52)">
        <path id="Path_562" d="M23.2 53.5l8.3 7a1.135 1.135 0 0 0 .8.3h.3l10.8-2.3a1.4 1.4 0 0 0 1.2-.9v-.1l2.7-10.9v-.7c0-.1-.1-.1-.1-.2l-.1-.1a.1.1 0 0 0-.1-.1l-.1-.1-8.7-7.1a1.689 1.689 0 0 0-1-.3l-11 2.2a1.061 1.061 0 0 0-.9.9l-2.7 11a.97.97 0 0 0 .6 1.4zm19.1 2.7L33.9 58l2.1-8.3 5-1 3.4-.7zM37 40.5l6.3 5.1-8 1.7-6.3-5.2zm-9.9 3l6.6 5.5-2.1 8.3-6.6-5.5z" class="cls-1" data-name="Path 562"/>
        <path id="Path_563" d="M55.2 40l3.4 10.8a1.115 1.115 0 0 0 1.3.8l10.9 1.6h.2a1.136 1.136 0 0 0 .8-.3l7.9-7.4a1.189 1.189 0 0 0 .7-1.5L77 33.2c0-.1-.1-.2-.1-.3a.1.1 0 0 0-.1-.1c0-.1-.1-.1-.1-.2l-.1-.1c-.1 0-.1-.1-.2-.1H76l-11.1-1.5a1.209 1.209 0 0 0-1 .3l-8.3 7.6a1.039 1.039 0 0 0-.4 1.2zm5.5 9.3l-2.5-8.1 8.5 1.3 2.5 8.1zm10.8.5L69 41.7l2.7-2.5 3.6-3.4 2.5 8.1zm-6.4-16.5l8 1.1-4.2 3.9-1.7 1.7-8.1-1.2z" class="cls-1" data-name="Path 563"/>
        <path id="Path_564" d="M39.1 25.9a.969.969 0 0 0 .8.7L50.2 30a1.08 1.08 0 0 0 .7.3 1.222 1.222 0 0 0 .9-.4l7.8-8.2.2-.2v-.1c0-.1.1-.1.1-.2v-.7l-4-10.5a1.208 1.208 0 0 0-.7-.7L44.5 5.6a1.305 1.305 0 0 0-1.3.3l-7.8 8.2a1.226 1.226 0 0 0-.1 1.6zm11.6 1.7L42.5 25l5.9-6.2 8.2 2.6zm3.1-16.3l2.9 7.6-7.7-2.5-2.8-7.6zM43.7 9l3 8-5.9 6.2-3-8z" class="cls-1" data-name="Path 564"/>
        <path id="Path_565" d="M88.5 70.7c0-.1-.1-.1-.2-.2-12.1-11.4-25-8.5-26.3-8.2l-17.4 2.1c-2 .1-5.7 1.4-6.4 5.2H21c-4.1 0-7 1.8-8.3 5a8.07 8.07 0 0 0-5.8 2.8c-2.8 3.3-2.1 8.2-2.1 8.4a1.188 1.188 0 0 0 1.2 1h6.4a17.543 17.543 0 0 0-.1 3.9 1.188 1.188 0 0 0 1.2 1h6.4a14.716 14.716 0 0 0 0 3.2 1.188 1.188 0 0 0 1.2 1h66.5a1.222 1.222 0 0 0 .9-.4c10.1-10.1.1-24.6 0-24.8zM87 93.5H22.2a8.748 8.748 0 0 1 1.6-5.4 6.557 6.557 0 0 1 5.2-2h27.1a1.135 1.135 0 0 0 .8-.3c.3-.3 8.4-7.7 24.2.2l1.1-2.2c-15.7-7.9-24.7-1.7-26.6-.1H29a9.1 9.1 0 0 0-7.1 2.8 8.055 8.055 0 0 0-1.5 2.7h-5.8a8.748 8.748 0 0 1 1.6-5.4 6.557 6.557 0 0 1 5.2-2h32.1v-2.4H21.3a9.1 9.1 0 0 0-7.1 2.8 6.662 6.662 0 0 0-1.3 2.1h-6c.1-1.3.3-3.7 1.7-5.3a6.557 6.557 0 0 1 5.2-2H50v-2.4H15.4c1.1-1.6 2.9-2.5 5.6-2.5h37.7a3.989 3.989 0 0 0 .7 2.5 4.6 4.6 0 0 0 4 1.7v-2.4a2.671 2.671 0 0 1-2-.6 2.548 2.548 0 0 1-.1-1.9 1.376 1.376 0 0 0-.1-1.1 1.231 1.231 0 0 0-1-.5H40.7c.7-2.5 3.7-2.8 4.1-2.8l17.5-2.1h.2c.1 0 12.5-3.2 24.1 7.5.8 1 8.2 12.8.4 21.1z" class="cls-1" data-name="Path 565"/>
    </g>
</svg>
