<svg xmlns="http://www.w3.org/2000/svg" viewBox="0 0 82.801 99.3">
    <defs>
        <style>
            .cls-1{fill:url(#linear-gradient)}
        </style>
        <linearGradient id="linear-gradient" x1=".5" x2=".5" y2="1" gradientUnits="objectBoundingBox">
            <stop offset="0" stop-color="#b5d7ff"/>
            <stop offset=".42" stop-color="#7ebffe"/>
            <stop offset="1" stop-color="#4a90e2"/>
        </linearGradient>
    </defs>
    <g id="Gift" transform="translate(-8.6 -.3)">
        <path id="Path_461" d="M58.6 57.5H13.9v42.1h72.2V57.5z" class="cls-1" data-name="Path 461"/>
        <path id="Path_462" d="M59.2 30.6H8.6v21h82.8v-21z" class="cls-1" data-name="Path 462"/>
        <path id="Path_463" d="M28.2 24.4c2.6 1.8 6.9 2.6 13.3 2.6h17.1c6.3 0 10.7-.9 13.3-2.6 6.4-4.4 8.4-12.8 4.3-18.7A12.717 12.717 0 0 0 65.6.3a14.878 14.878 0 0 0-8.4 2.6c-3 2-5.4 6.6-7.1 11C48.4 9.6 46 5 43 2.9A14.878 14.878 0 0 0 34.6.3 12.717 12.717 0 0 0 24 5.7c-4.2 5.9-2.2 14.3 4.2 18.7zM60.3 7.6a9.211 9.211 0 0 1 5.2-1.7 7.124 7.124 0 0 1 6 3c2.3 3.4 1 8.2-2.8 10.9-.7.5-3.2 1.6-10.1 1.6-1.9 0-3.7-.1-5.1-.2 1.6-5.5 4.3-12 6.8-13.6zM28.5 8.9a7.124 7.124 0 0 1 6-3 9.211 9.211 0 0 1 5.2 1.7c2.4 1.7 5.2 8.2 6.9 13.6-1.4.1-3.2.2-5.1.2-6.9 0-9.3-1.1-10.1-1.6-3.9-2.7-5.2-7.6-2.9-10.9z" class="cls-1" data-name="Path 463"/>
    </g>
</svg>
