<svg xmlns="http://www.w3.org/2000/svg" viewBox="0 0 48.503 45.515">
    <defs>
        <style>
            .cls-1{fill-rule:evenodd;fill:url(#linear-gradient)}
        </style>
        <linearGradient id="linear-gradient" x1=".5" x2=".5" y2="1" gradientUnits="objectBoundingBox">
            <stop offset="0" stop-color="#b5d7ff"/>
            <stop offset=".42" stop-color="#7ebffe"/>
            <stop offset="1" stop-color="#4a90e2"/>
        </linearGradient>
    </defs>
    <g id="HELLO_HANG_LOOSE" data-name="HELLO HANG LOOSE" transform="translate(-519.146 -795.424)">
        <path id="Path_693" d="M566.909 826.883a46.385 46.385 0 0 1-3.545-4.433c-.828-1.31-.953-2.706-1.808-4.13s-1.883-2.7-2.858-4.021a18.443 18.443 0 0 1-2.111-4.124 18.772 18.772 0 0 1-1.18-4.124c-.135-.693-.438-1.31-.6-1.986-.162-.709-.108-1.429-.211-2.143a32.481 32.481 0 0 1-.8-4.227c.005-.741.1-1.559-.617-2.024a1.736 1.736 0 0 0-2.176.368 6.985 6.985 0 0 0-2.284 4.46 10.779 10.779 0 0 0 .308 4.286c.406 2.457 2.235 6.928-1.093 8.129-1.4.5-2.825-1.012-4.211-1.629-1.223-.547-3.134-1.884-4.406-1.7-1.326.189-3.1.52-3.74 1.808-.844 1.683-.092 2.9 1.115 4.086a3.622 3.622 0 0 0-1.607 2.885 7.021 7.021 0 0 0 .379 1.456c.26.72.806.99.974 1.3a9.915 9.915 0 0 0-1.185.276 3.03 3.03 0 0 0-1.055.9 3.4 3.4 0 0 0-.52 2.4 5 5 0 0 0 1.2 2.268 8.644 8.644 0 0 0 1.153 1.028c.411.287.606.779.871.92-1.331.465-2.306.179-3.675.271a22.248 22.248 0 0 1-3.686.189 17.309 17.309 0 0 1-3.74-.4 20.7 20.7 0 0 0-3.816-.866c-1.321-.108-2.63.276-2.825 1.791-.2 1.575 1.591 2.181 2.782 2.555a69.98 69.98 0 0 0 7.55 1.651c2.436.5 4.925.195 7.437.731 1.153.249 2.6.877 3.789 1.245 1.31.406 2.533.969 3.87 1.348a12.7 12.7 0 0 0 3.762.558c3.946-.135 4.124-.525 7.523 2.062 1.137.871 3.036 1.337 3.973.3 3.22-3.572 4.292-5.1 6.387-7.772s1.455-4.869.676-5.692z" class="cls-1" data-name="Path 693"/>
    </g>
</svg>
