<svg xmlns="http://www.w3.org/2000/svg" viewBox="0 0 31.693 82.748">
    <defs>
        <style>
            .cls-1,.cls-2{fill:none}.cls-1,.cls-2,.cls-3{stroke:#15457d;stroke-miterlimit:10;stroke-width:2px}.cls-2,.cls-3{stroke-linecap:round;stroke-linejoin:round}.cls-3{fill:url(#linear-gradient)}.cls-4{fill:#15457d}
        </style>
        <linearGradient id="linear-gradient" x1=".5" x2=".5" y2="1" gradientUnits="objectBoundingBox">
            <stop offset="0" stop-color="#b5d7ff"/>
            <stop offset=".42" stop-color="#7ebffe"/>
            <stop offset="1" stop-color="#4a90e2"/>
        </linearGradient>
    </defs>
    <g id="Happy_Artik" data-name="Happy Artik" transform="translate(-190.747 -208.916)">
        <path id="Path_400" d="M51.822 63.115v18.369a2.347 2.347 0 0 1-2.5 2.151 2.347 2.347 0 0 1-2.5-2.151V63.115" class="cls-1" data-name="Path 400" transform="translate(157.273 207.029)"/>
        <path id="Path_401" d="M64.192 29.563l-.075 8.319a2.422 2.422 0 0 1-4.844 0v7.728a2.376 2.376 0 0 1-4.752 0v-5.15a2.186 2.186 0 0 1-4.371 0v-3.215a20.422 20.422 0 0 1-2.66.193 20.226 20.226 0 0 1-12.989-4.7v32.121c0 4.75 4.48 8.6 10.008 8.6h9.674c5.528 0 10.008-3.851 10.008-8.6v-36.2c-.025.033.027.866.001.904z" class="cls-2" data-name="Path 401" transform="translate(157.247 196.935)"/>
        <path id="Path_402" d="M62.046 24.2c-.1 0-.189.014-.286.014a6.932 6.932 0 0 1-6.932-6.932v-.058a4.442 4.442 0 0 1-3.867-4.21h-6.453c-5.528 0-10.008 3.851-10.008 8.6v11.155a20.221 20.221 0 0 0 12.989 4.7 20.421 20.421 0 0 0 2.66-.193v3.216a2.186 2.186 0 0 0 4.371 0v5.15a2.376 2.376 0 0 0 4.752 0v-7.728a2.422 2.422 0 0 0 4.844 0l.075-8.319v-3.187a3.225 3.225 0 0 1-2.145-2.208z" class="cls-3" data-name="Path 402" transform="translate(157.247 196.902)"/>
        <ellipse id="Ellipse_305" cx="1.221" cy="2.378" class="cls-4" data-name="Ellipse 305" rx="1.221" ry="2.378" transform="translate(201.066 247.942)"/>
        <ellipse id="Ellipse_306" cx="1.221" cy="2.378" class="cls-4" data-name="Ellipse 306" rx="1.221" ry="2.378" transform="translate(209.165 247.942)"/>
        <path id="Path_655" d="M5.764 3c3.183 0 5.764-2.59 5.764-1.613S8.947 5.4 5.764 5.4 0 2.364 0 1.387 2.58 3 5.764 3z" class="cls-4" data-name="Path 655" transform="translate(200.573 256.297)"/>
    </g>
</svg>
