<svg xmlns="http://www.w3.org/2000/svg" viewBox="0 0 59.906 59.003">
    <defs>
        <style>
            .cls-1{fill:url(#linear-gradient)}
        </style>
        <linearGradient id="linear-gradient" x1=".5" x2=".5" y2="1" gradientUnits="objectBoundingBox">
            <stop offset="0" stop-color="#b5d7ff"/>
            <stop offset=".42" stop-color="#7ebffe"/>
            <stop offset="1" stop-color="#4a90e2"/>
        </linearGradient>
    </defs>
    <g id="noun_highlighter_960604_000000" transform="translate(.002 -.997)">
        <path id="Path_561" d="M.55 57.89l4 2A1 1 0 0 0 5 60h32a1 1 0 0 0 0-2H7.85l.82-.66a1 1 0 0 0 1.17-.18 11.28 11.28 0 0 1 8.09-3 16.62 16.62 0 0 1 3.45.36 3 3 0 0 0 4-.21l1.41-1.42 32.45-37.5a3 3 0 0 0-.21-4L49.7 1.88a3 3 0 0 0-4.09-.15L8.57 34.4l-.15.13-.09.1L7 35.94a3 3 0 0 0-.21 4c.28 1.23 1.42 7.5-2.62 11.54A1 1 0 0 0 4 52.6L.29 56.29a1 1 0 0 0 .26 1.6zm8.13-18.67a1 1 0 0 0-.24-.44 1.014 1.014 0 0 1-.01-1.43l.7-.7L24.68 52.2l-.71.7a1 1 0 0 1-1.41 0 1.13 1.13 0 0 0-.45-.26 18.19 18.19 0 0 0-4.19-.48 13.36 13.36 0 0 0-8.76 2.9l-2.9-2.9c4.45-5.27 2.51-12.62 2.42-12.94z" class="cls-1" data-name="Path 561"/>
    </g>
</svg>
