<svg xmlns="http://www.w3.org/2000/svg" viewBox="0 0 68.583 89.188">
    <defs>
        <style>
            .cls-1{fill:url(#linear-gradient)}
        </style>
        <linearGradient id="linear-gradient" x1=".5" x2=".5" y2="1" gradientUnits="objectBoundingBox">
            <stop offset="0" stop-color="#b5d7ff"/>
            <stop offset=".42" stop-color="#7ebffe"/>
            <stop offset="1" stop-color="#4a90e2"/>
        </linearGradient>
    </defs>
    <g id="HOT" transform="translate(-8.56 -1.518)">
        <g id="Group_159" data-name="Group 159" transform="translate(8.56 2.987)">
            <g id="Group_158" data-name="Group 158">
                <path id="Path_488" d="M44.391 16.332v-5.7a4.328 4.328 0 0 1-1.564.044 3.948 3.948 0 0 1-1.927-.83 10.744 10.744 0 0 1-2.333-3.185 22.09 22.09 0 0 0-1.535-2.445l-1.268-1.694L35 4.491a24.642 24.642 0 0 0-.809 2.648C33.5 9.685 33 11.278 30.944 12.033c-2.2.809-3.925-.233-6.109-1.549-.7-.421-1.4-.843-2.159-1.214l-2.168-1.089.474 2.377c.159.765.348 1.505.552 2.212.74 2.807 1.143 4.619-.218 6.384-1.3 1.723-3.273 1.709-5.543 1.709a21.734 21.734 0 0 0-2.9.13l-2.086.262 1.317 1.65c2.822 3.533 4.531 5.659 4.371 7-.159 1.375-2.314 3.069-6.225 6.124L8.56 37.37l2.028.721c.736.262 1.52.48 2.275.683a10.444 10.444 0 0 1 3.747 1.476 2.546 2.546 0 0 1 .988 1.709 13.679 13.679 0 0 1-.887 5.659c-.262.91-.537 1.854-.721 2.793l-.348 1.679 1.694-.277a17.2 17.2 0 0 0 2.038-.5c1.782-.508 3.621-1.046 4.85-.059a3.182 3.182 0 0 1 .537.547c1.084 1.418 1.535 3.491 1.971 5.5.2.925.4 1.883.677 2.764l.581 1.927 1.4-1.447c.291-.291.581-.625.866-.929 1.593-1.782 3.113-3.456 5.692-3.04a4.12 4.12 0 0 1 1.994.872 11.644 11.644 0 0 1 2.623 3.644c.377.669.765 1.365 1.2 2.042l.426.663a20.822 20.822 0 0 1 2.193-3.273V51a17.988 17.988 0 0 1-16.371-3.418 1.361 1.361 0 0 0-.159-.13 17.577 17.577 0 0 1-6.4-12.043 17.94 17.94 0 0 1 22.937-19.077z" class="cls-1" data-name="Path 488" transform="translate(-8.56 -2.522)"/>
            </g>
        </g>
        <path id="Path_489" d="M61.374 52.249c0 2.908.01 5.815-.01 8.724a1.817 1.817 0 0 0 .5 1.336 16.49 16.49 0 0 1 4.361 11.969 17.06 17.06 0 0 1-33.862 2.249 16.658 16.658 0 0 1 4.086-14.178 2.032 2.032 0 0 0 .533-1.464c-.015-5.7-.06-41.033.007-46.729.07-6.008 4-11.729 10.184-12.532A13.164 13.164 0 0 1 57.9 5.181a13.653 13.653 0 0 1 3.477 9.278c-.012 2.717-.003 35.074-.003 37.79zm-4.835 1.107c0-3.147.018-35.932-.006-39.079-.047-3.031-1.175-5.483-3.175-6.766-2.238-1.437-5.613-1.927-7.916-.354a8.615 8.615 0 0 0-3.619 7.034c-.044 6.03-.053 41.7.018 47.731a3.791 3.791 0 0 1-1.264 3.1 11.412 11.412 0 0 0-3.616 7.855 12.227 12.227 0 1 0 24.064-2.231 13.178 13.178 0 0 0-4.03-6.443 1.381 1.381 0 0 1-.467-1.121c.02-3.243.011-6.482.011-9.725z" class="cls-1" data-name="Path 489" transform="translate(10.906)"/>
        <path id="Path_490" d="M49.771 61.208a2.1 2.1 0 0 1-.057-.448c-.022-2.692-.02-5.425-.019-8.07v-6.554-29.257c0-.154-.007-.3-.019-.449v-.89a3.269 3.269 0 0 0-6.538 0v1.58c0 .082 0 .161.01.238 0 11.654 0 37.386.013 43.2a2.97 2.97 0 0 1-.056.606A8.335 8.335 0 1 0 54.553 70.5a8.456 8.456 0 0 0 .168-1.678 8.325 8.325 0 0 0-4.95-7.614z" class="cls-1" data-name="Path 490" transform="translate(13.655 5.001)"/>
    </g>
</svg>
