<svg xmlns="http://www.w3.org/2000/svg" viewBox="0 0 141.607 106.265">
    <defs>
        <style>
            .cls-1{fill:url(#linear-gradient)}
        </style>
        <linearGradient id="linear-gradient" x1=".5" x2=".5" y2="1" gradientUnits="objectBoundingBox">
            <stop offset="0" stop-color="#b5d7ff"/>
            <stop offset=".42" stop-color="#7ebffe"/>
            <stop offset="1" stop-color="#4a90e2"/>
        </linearGradient>
    </defs>
    <g id="HOT_AIR_BALOON" data-name="HOT AIR BALOON" transform="translate(-806 -615.994)">
        <path id="noun_Parachute_4254_000000" d="M74.875 31.4c0-20.007-15.557-31.4-36.23-31.4S0 11.393 0 31.4l31.172 43.663a5.094 5.094 0 0 0-1.132 3.17v4.415a5.2 5.2 0 0 0 5.17 5.171h4.416a5.2 5.2 0 0 0 5.174-5.171v-4.415a5.094 5.094 0 0 0-1.132-3.17zM31.361 74.837L2.415 31.4a6.642 6.642 0 0 1 6.038-3.623 6.643 6.643 0 0 1 6.039 3.623l18.152 42.38a5.26 5.26 0 0 0-1.283 1.057zm1.623-1.245L16.907 31.4a6.639 6.639 0 0 1 6.038-3.623 6.642 6.642 0 0 1 6.039 3.623l5.963 41.7a5.142 5.142 0 0 0-1.963.492zM31.4 31.4a6.844 6.844 0 0 1 12.077 0l-4 41.664h-4.116zm8.529 41.7l5.963-41.7a6.844 6.844 0 0 1 12.077 0L41.891 73.592a5.146 5.146 0 0 0-1.963-.492zm2.265.68L60.383 31.4a6.844 6.844 0 0 1 12.077 0L43.476 74.837a5.236 5.236 0 0 0-1.283-1.056z" class="cls-1" transform="translate(831.468 634.441)"/>
        <g id="noun_Cloud_10822_000000" transform="translate(806 615.994)">
            <path id="Path_446" d="M31.838 35.745a4.9 4.9 0 0 0-1.48.228 4.991 4.991 0 0 0-7.558-4.278 8.238 8.238 0 0 0-15.831 2.24 6.038 6.038 0 0 0 1.948 11.64c.024 0 .048.007.073.007h22.848a4.918 4.918 0 1 0 0-9.837z" class="cls-1" data-name="Path 446" transform="translate(-3.167 -26.544)"/>
        </g>
        <g id="noun_Cloud_10822_000000-2" data-name="noun_Cloud_10822_000000" transform="translate(914.018 659.026)">
            <path id="Path_446-2" d="M31.838 35.745a4.9 4.9 0 0 0-1.48.228 4.991 4.991 0 0 0-7.558-4.278 8.238 8.238 0 0 0-15.831 2.24 6.038 6.038 0 0 0 1.948 11.64c.024 0 .048.007.073.007h22.848a4.918 4.918 0 1 0 0-9.837z" class="cls-1" data-name="Path 446" transform="translate(-3.167 -26.544)"/>
        </g>
    </g>
</svg>
