<svg xmlns="http://www.w3.org/2000/svg" viewBox="0 0 48.047 81">
    <defs>
        <style>
            .cls-1{fill:url(#linear-gradient)}
        </style>
        <linearGradient id="linear-gradient" x1=".5" x2=".5" y2="1" gradientUnits="objectBoundingBox">
            <stop offset="0" stop-color="#b5d7ff"/>
            <stop offset=".42" stop-color="#7ebffe"/>
            <stop offset="1" stop-color="#4a90e2"/>
        </linearGradient>
    </defs>
    <g id="Medal" transform="translate(-20.17 -9.999)">
        <g id="Group_153" data-name="Group 153" transform="translate(26.026 56.951)">
            <g id="Group_152" data-name="Group 152">
                <g id="Group_151" data-name="Group 151">
                    <g id="Group_150" data-name="Group 150">
                        <path id="Path_468" d="M41.952 43.349a27.065 27.065 0 0 1-14.74-4.365l-3.419 32.26a1.637 1.637 0 0 0 .826 1.587 1.692 1.692 0 0 0 .794.194 1.669 1.669 0 0 0 1-.34l15.539-12.246L57.5 72.685a1.625 1.625 0 0 0 1.782.146 1.584 1.584 0 0 0 .826-1.587l-3.419-32.26a27.065 27.065 0 0 1-14.737 4.365z" class="cls-1" data-name="Path 468" transform="translate(-23.785 -38.983)"/>
                    </g>
                </g>
            </g>
        </g>
        <g id="Group_157" data-name="Group 157" transform="translate(20.17 9.998)">
            <g id="Group_156" data-name="Group 156">
                <g id="Group_155" data-name="Group 155">
                    <g id="Group_154" data-name="Group 154">
                        <path id="Path_469" d="M44.193 10a24.039 24.039 0 1 0 24.023 24.038A24.059 24.059 0 0 0 44.193 10zm13.381 22.45l-5.508 5.378 1.3 7.581A1.65 1.65 0 0 1 52.714 47a1.612 1.612 0 0 1-1.7.113l-6.82-3.58-6.8 3.58a1.612 1.612 0 0 1-.761.194 1.718 1.718 0 0 1-.961-.307 1.65 1.65 0 0 1-.648-1.588l1.312-7.581-5.523-5.381a1.627 1.627 0 0 1 .907-2.77l7.614-1.1 3.418-6.9a1.673 1.673 0 0 1 2.9 0l3.4 6.9 7.63 1.1a1.62 1.62 0 0 1 1.3 1.1 1.637 1.637 0 0 1-.408 1.67z" class="cls-1" data-name="Path 469" transform="translate(-20.17 -9.998)"/>
                    </g>
                </g>
            </g>
        </g>
    </g>
</svg>
