<svg xmlns="http://www.w3.org/2000/svg" viewBox="0 0 44.994 65.745">
    <defs>
        <style>
            .cls-1{fill:url(#linear-gradient)}
        </style>
        <linearGradient id="linear-gradient" x1=".5" x2=".5" y2="1" gradientUnits="objectBoundingBox">
            <stop offset="0" stop-color="#b5d7ff"/>
            <stop offset=".42" stop-color="#7ebffe"/>
            <stop offset="1" stop-color="#4a90e2"/>
        </linearGradient>
    </defs>
    <g id="peace_man" data-name="peace man">
        <path id="Path_288" d="M48.615 49.65l.664-1.211a3.009 3.009 0 0 1 1.143-1.187c1.093-.636 2.535-.636 4.583-.636h1.4l-12.2-20.976a4.122 4.122 0 0 0-7.063 4.253zm19.112-26.067a4.124 4.124 0 0 0-8.247 0v23.034h8.246V23.583zm-.883 25.273H54.959c-2.257 0-3.081.058-3.514.406l-.154.164a4.192 4.192 0 0 0-.388 2.187 6.915 6.915 0 0 0 6.905 6.909h3.437a1.12 1.12 0 1 1 0 2.241 7.026 7.026 0 0 0-7.018 7.018 1.12 1.12 0 1 1-2.241 0 9.182 9.182 0 0 1 2.61-6.422l.814-.841-1.081-.446a9.022 9.022 0 0 1-1.7-.955l-.8-.56-.381.9a6.325 6.325 0 0 1-5.876 3.881h-.024l-1.1-.035.139.935a6.349 6.349 0 0 1-9.742 6.26l-1.958-1.263.778 2.2a20.63 20.63 0 0 0 40.087-6.872v-8.8a6.918 6.918 0 0 0-6.908-6.907zM38.291 69.295a4.065 4.065 0 0 0 2.118-.592 4.121 4.121 0 0 0 1.409-5.657l-5.406-8.981a4.122 4.122 0 0 0-7.065 4.25l5.408 8.985a4.092 4.092 0 0 0 3.536 1.995zm5.431-23.426a4.122 4.122 0 1 0-7.062 4.253l5.406 8.978a4.123 4.123 0 0 0 7.065-4.251z" class="cls-1" data-name="Path 288" transform="translate(-28.757 -19.46)"/>
    </g>
</svg>
