<svg xmlns="http://www.w3.org/2000/svg" id="perfect" viewBox="0 0 50.569 83.115">
    <defs>
        <style>
            .cls-1{fill:url(#linear-gradient)}
        </style>
        <linearGradient id="linear-gradient" x1=".5" x2=".5" y2="1" gradientUnits="objectBoundingBox">
            <stop offset="0" stop-color="#b5d7ff"/>
            <stop offset=".42" stop-color="#7ebffe"/>
            <stop offset="1" stop-color="#4a90e2"/>
        </linearGradient>
    </defs>
    <path id="Path_566" d="M49.018 43.284c-1.188-4.761-4.688-8.665-8.562-11.416-2.159-1.534-3.622-3.022-6.233-2.987-2.55.031-5.646 2.063-7.839 3.133.753-5.129 2.405-10.066 3.429-15.188.921-4.593 4.425-11.449 1.651-15.734-3.2-4.946-7.074 8.4-7.727 10.347-1.637 4.89-3.87 9.478-5.387 14.4a93.554 93.554 0 0 1-1.96-13.471c-.114-1.991.491-5.518-.294-7.3C15.2 3.025 11.816 1 10.464 3.7c-1.5 3-.637 10.182-.637 13.619A97.166 97.166 0 0 0 11.1 34.368c-3.228-3.2-3.09-7.136-2.775-11.35.168-2.241-.395-10.565-4.771-7.269-1.623 1.226-2.508 9.919-2.312 11.99.482 5.047.695 8.3 3.391 12.607C7.044 44.2 8.5 47.1 8.158 51.61c-.148 1.979-.626 3.929-.953 5.9 1.436 5.241 10.508 12.355 19.43 13.26 4.305-1.227 7.665-6.682 11.065-9.38 3.424-2.717 9.432-3.818 11.711-7.523 2.399-3.91.466-7.143-.393-10.583zM35.84 50.729c-2.146-.287-7.717-4.034-8.771-5.975.371-1.4 1.782-4.39 3.038-5.195 1.893-1.211 3.725.106 5.292-2.352.805 1.251 5.052 3.065 5.094 3.233.424 1.693 2.921 4.186 4.409 5.1-3.196 1.223-4.644 5.781-9.062 5.189z" class="cls-1" data-name="Path 566"/>
    <path id="Path_567" d="M4.1 63.6L0 69.436c1.307 2.4 3.717 6.035 6.878 8.106 2.258 1.479 7.273 5.046 12.212 5.573l4.121-8.523c-4.752-.4-10.183-3.645-12.322-5.043A27.315 27.315 0 0 1 4.1 63.6z" class="cls-1" data-name="Path 567"/>
</svg>
