<svg xmlns="http://www.w3.org/2000/svg" viewBox="0 0 99.252 113.748">
    <defs>
        <style>
            .cls-1{fill:none}.cls-2{fill:#cfe5ff}.cls-3{fill:#eef6ff}.cls-4{fill:#d4e8ff}.cls-5{fill:#eff6ff}.cls-6{fill-rule:evenodd;fill:url(#linear-gradient)}.cls-7,.cls-8{stroke:none}.cls-8{fill:#4a90e2}
        </style>
        <linearGradient id="linear-gradient" x1=".5" x2=".5" y2="1" gradientUnits="objectBoundingBox">
            <stop offset="0" stop-color="#b5d7ff"/>
            <stop offset=".42" stop-color="#7ebffe"/>
            <stop offset="1" stop-color="#4a90e2"/>
        </linearGradient>
    </defs>
    <g id="Point" transform="translate(8258 1041)">
        <g id="Path_394" class="cls-1" data-name="Path 394">
            <path d="M42.165 0h3.922a42.165 42.165 0 0 1 0 84.33h-3.922a42.165 42.165 0 0 1 0-84.33z" class="cls-7" transform="translate(-8247 -1011.583)"/>
            <path d="M42.165 2a40.034 40.034 0 0 0-28.401 11.764A40.034 40.034 0 0 0 2 42.165a40.034 40.034 0 0 0 11.764 28.401A40.034 40.034 0 0 0 42.165 82.33h3.922a40.034 40.034 0 0 0 28.401-11.764 40.034 40.034 0 0 0 11.764-28.4 40.034 40.034 0 0 0-11.764-28.401A40.034 40.034 0 0 0 46.088 2h-3.923m0-2h3.922c23.287 0 42.165 18.878 42.165 42.165S69.374 84.33 46.087 84.33h-3.922C18.878 84.33 0 65.452 0 42.165S18.878 0 42.165 0z" class="cls-8" transform="translate(-8247 -1011.583)"/>
        </g>
        <circle id="Ellipse_292" cx="3.922" cy="3.922" r="3.922" class="cls-2" data-name="Ellipse 292" transform="translate(-8239.369 -1018.447)"/>
        <circle id="Ellipse_293" cx="1.961" cy="1.961" r="1.961" class="cls-3" data-name="Ellipse 293" transform="translate(-8235.446 -1029.233)"/>
        <circle id="Ellipse_295" cx="5.393" cy="5.393" r="5.393" class="cls-4" data-name="Ellipse 295" transform="translate(-8258 -1008.641)"/>
        <circle id="Ellipse_296" cx="3.922" cy="3.922" r="3.922" class="cls-5" data-name="Ellipse 296" transform="translate(-8258 -1022.369)"/>
        <circle id="Ellipse_294" cx="6.864" cy="6.864" r="6.864" class="cls-2" data-name="Ellipse 294" transform="translate(-8254.078 -1041)"/>
        <g id="noun_pointing_hand_1008525" data-name="noun_pointing hand_1008525" transform="translate(-8233.842 -3332.154)">
            <g id="Group_115" data-name="Group 115" transform="translate(5.842 2333.149)">
                <path id="Path_395" d="M11315.151 2436.891c3.508-.113 3.661-.264 3.774-.942a27.848 27.848 0 0 0 .224-2.98 13.111 13.111 0 0 1 .264-2.867 5.114 5.114 0 0 1 1.134-1.924l1.395-1.547a7.863 7.863 0 0 0 1.473-2.374 16.34 16.34 0 0 0 .942-5.545c.112-2.831-.038-6.9-.151-9.393a15.653 15.653 0 0 0-.452-4.149 2.988 2.988 0 0 0-1.433-1.735 4.279 4.279 0 0 0-2.455-.416 2.035 2.035 0 0 0-1.621 1.17 7.589 7.589 0 0 0-.565 2.337 4.039 4.039 0 0 1-.224 1.321c-.15.263-.454.415-.567 0a16.651 16.651 0 0 1-.038-2.525 16.086 16.086 0 0 0-.3-3.4 3.716 3.716 0 0 0-1.093-2.076 3.128 3.128 0 0 0-1.7-.64 3.606 3.606 0 0 0-1.694.113 1.757 1.757 0 0 0-1.058 1.133 10.261 10.261 0 0 0-.265 2 6.108 6.108 0 0 1-.377 1.622c-.152.34-.3.414-.381-.34s-.073-2.339-.187-3.543a6.081 6.081 0 0 0-.754-2.716 3.647 3.647 0 0 0-1.661-1.473 2.433 2.433 0 0 0-1.923 0 2.91 2.91 0 0 0-1.472 1.584 16.4 16.4 0 0 0-.642 2.453c-.15.6-.3.754-.3 0s.15-2.414.226-5.469.075-7.507-.075-10.034-.45-3.131-.9-3.7a4.811 4.811 0 0 0-1.738-1.4 3.051 3.051 0 0 0-2.071-.188 3.214 3.214 0 0 0-1.623 1.246c-.455.6-.83 1.356-1.019 5.693s-.188 12.26-.266 16.749-.227 5.545-1.244 5.054-2.905-2.527-4.187-3.734a5.564 5.564 0 0 0-2.764-1.748 3.891 3.891 0 0 0-2.405.228 3.419 3.419 0 0 0-1.4 1.508 2.476 2.476 0 0 0-.292 1.86 16.518 16.518 0 0 0 1.771 4.415 91.651 91.651 0 0 0 5.169 8.636c2.109 3.132 4.446 6.147 5.73 7.846s1.513 2.074 1.663 3.281.227 3.245.259 4.525.04 1.811 3.471 2.039 10.294.16 13.802.045z" class="cls-6" data-name="Path 395" transform="translate(-11283.221 -2379.154)"/>
                <path id="Path_396" d="M21004.291 41563.137c-2 .2-4 .406-6.488.492s-5.453.027-8-.1-4.674-.328-6.8-.535v10.988c2-.207 4.055.418 6.537.352 2.484-.086 5.342.25 7.885.383s4.742-.8 6.867-.6z" class="cls-6" data-name="Path 396" transform="translate(-20968.398 -41504)"/>
            </g>
        </g>
    </g>
</svg>
