<svg xmlns="http://www.w3.org/2000/svg" viewBox="0 0 75.791 73.019">
    <defs>
        <style>
            .cls-1{fill:url(#linear-gradient)}
        </style>
        <linearGradient id="linear-gradient" x1=".5" x2=".5" y2="1" gradientUnits="objectBoundingBox">
            <stop offset="0" stop-color="#b5d7ff"/>
            <stop offset=".42" stop-color="#7ebffe"/>
            <stop offset="1" stop-color="#4a90e2"/>
        </linearGradient>
    </defs>
    <path id="Puzzle" d="M76.657 22.906a5.8 5.8 0 0 0-9.082-3.594.475.475 0 0 1-.274.083.437.437 0 0 1-.422-.453l.237-6.563a1.16 1.16 0 0 0-1.044-1.2l-6.526-.649a2.192 2.192 0 0 0-2.246 3.016 3.3 3.3 0 0 1-.322 3.106 5.581 5.581 0 0 1-7.043 1.927 1.578 1.578 0 0 1-.761-2.1 66.432 66.432 0 0 0 1.521-3.514 2.082 2.082 0 0 0-1.162-2.7 2.125 2.125 0 0 0-.948-.14l-9.367.806c-.032 0-.059.02-.09.026a1.125 1.125 0 0 0-.177 0l-10.048.8a1.269 1.269 0 0 1-1.272-1.735 66.47 66.47 0 0 1 1.5-3.471 2.4 2.4 0 0 0-1.115-3.155 6.452 6.452 0 0 0-8.09 2.19 4.112 4.112 0 0 0-.237 4.214 1.312 1.312 0 0 1-1.289 1.916l-7.283-.725A1.161 1.161 0 0 0 9.84 12.1l-.234 6.783a1.865 1.865 0 0 0 1.8 1.932 1.877 1.877 0 0 0 1.158-.351 4.372 4.372 0 1 1 .115 7.173 2.033 2.033 0 0 0-2.824.55 2.045 2.045 0 0 0-.341 1.287l.716 9.58a.94.94 0 0 0 .026.094 1.272 1.272 0 0 0-.005.18l.732 9.55a6.417 6.417 0 1 0-.13 10.729l-.257 7.123a1.159 1.159 0 0 0 1.044 1.2l7.4.737a2.739 2.739 0 0 0 2.7-4 2.687 2.687 0 0 1 .155-2.755 4.955 4.955 0 0 1 6.194-1.752c.021.012.055.029.077.039a.959.959 0 0 1 .462 1.274 66.639 66.639 0 0 0-1.534 3.547 2.7 2.7 0 0 0 2.506 3.696c.076 0 .152 0 .227-.01l9.315-.8c.036 0 .064-.022.1-.028a1.074 1.074 0 0 0 .2 0L49.491 66.8a.64.64 0 0 1 .3.044.651.651 0 0 1 .364.846 65.049 65.049 0 0 1-1.487 3.438 3.021 3.021 0 0 0 1.4 3.972 6.946 6.946 0 0 0 3.019.686 7.071 7.071 0 0 0 5.854-3.086 4.726 4.726 0 0 0 .461-4.443.767.767 0 0 1 .785-1.056l6.4.638a1.159 1.159 0 0 0 1.274-1.112l.267-7.426a1.248 1.248 0 0 0-1.2-1.286 1.235 1.235 0 0 0-.777.235 4.99 4.99 0 0 1-7.051-6.832 4.99 4.99 0 0 1 6.928-1.35 1.415 1.415 0 0 0 2.2-1.28l-.719-9.626a.942.942 0 0 0-.026-.094 1.174 1.174 0 0 0 .005-.181l-.711-9.513a.606.606 0 0 1 .944-.548 5.8 5.8 0 0 0 8.933-5.919zM37.609 37.54H12.714l-.539-7.209a6.966 6.966 0 1 0 .068-12.659l.136-3.948 5.76.574a3.906 3.906 0 0 0 3.847-5.7 1.525 1.525 0 0 1 .087-1.561 3.845 3.845 0 0 1 4.62-1.395 68.405 68.405 0 0 0-1.473 3.417 3.863 3.863 0 0 0 2.159 5.018 3.878 3.878 0 0 0 1.719.264l8.509-.676V37.54z" class="cls-1" transform="translate(-.975 -2.769)"/>
</svg>
