<svg xmlns="http://www.w3.org/2000/svg" viewBox="0 0 119.751 51.703">
    <defs>
        <style>
            .cls-1{fill-rule:evenodd;fill:url(#linear-gradient)}
        </style>
        <linearGradient id="linear-gradient" x1=".5" x2=".5" y2="1" gradientUnits="objectBoundingBox">
            <stop offset="0" stop-color="#b5d7ff"/>
            <stop offset=".42" stop-color="#7ebffe"/>
            <stop offset="1" stop-color="#4a90e2"/>
        </linearGradient>
    </defs>
    <g id="Rest" transform="translate(-5.99 -983.361)">
        <path id="Path_466" d="M122.5 983.365a3.009 3.009 0 0 0-2.381 1.488c-2.3 3.739-4.578 7.233-6.888 10.458q-1.9 1.111-3.784 2.126a11.2 11.2 0 0 0-3.4-5.825 9.351 9.351 0 0 0-6.207-2.211 10.688 10.688 0 0 0-3.019.51c-5.838 1.746-10.785 7.908-11.394 16.879a79.518 79.518 0 0 1-15.008 2.083 90.763 90.763 0 0 0-14.328-6.037 25.7 25.7 0 0 0-7.228-1.233c-.335 0-.645.02-.978.042a8.057 8.057 0 0 0-6.25 3.4A96.072 96.072 0 0 1 19.1 994.759a203.195 203.195 0 0 1-7.653-10.076 3 3 0 1 0-4.889 3.486q14.968 21.119 29.846 32.184l-1.19 3.656c-1.5.682-3.492 1.535-5.272 2.423a16.228 16.228 0 0 0-3.146 1.913 5.09 5.09 0 0 0-1.36 1.616 4.1 4.1 0 0 0-.213 3.316 3.009 3.009 0 0 0 2.764 1.786c5.921-.053 10.016-.073 13.222-.128a4.365 4.365 0 0 0 3.614-2.126 16.877 16.877 0 0 0 1.658-2.891c.377-.782.723-1.67 1.105-2.551 13.188 6.406 26.555 6.634 39.2.51 13.519-6.548 26.233-19.953 38.476-39.88a3.005 3.005 0 0 0-2.466-4.634q-.149-.007-.3 0zM99.623 995.44a3.2 3.2 0 0 1 2.508.765 6.209 6.209 0 0 1 1.743 4.039 98.363 98.363 0 0 1-12.2 4.8c1.018-5.573 4.336-8.633 6.888-9.4a5.434 5.434 0 0 1 1.061-.204z" class="cls-1" data-name="Path 466"/>
    </g>
</svg>
