<svg xmlns="http://www.w3.org/2000/svg" viewBox="0 0 101 113.748">
    <defs>
        <style>
            .cls-1{fill:url(#linear-gradient)}.cls-2{fill:none}.cls-3{fill:#cfe5ff}.cls-4{fill:#eef6ff}.cls-5{fill:#d4e8ff}.cls-6{fill:#eff6ff}.cls-7,.cls-8{stroke:none}.cls-8{fill:#4a90e2}
        </style>
        <linearGradient id="linear-gradient" x1=".5" x2=".5" y2="1" gradientUnits="objectBoundingBox">
            <stop offset="0" stop-color="#b5d7ff"/>
            <stop offset=".42" stop-color="#7ebffe"/>
            <stop offset="1" stop-color="#4a90e2"/>
        </linearGradient>
    </defs>
    <g id="Rock_Roll" data-name="Rock&amp;Roll" transform="translate(-391 -153)">
        <g id="noun_heavy_metal_1879302_000000" data-name="noun_heavy metal_1879302_000000" transform="translate(401.45 185.819)">
            <g id="Group_145" data-name="Group 145" transform="translate(23.55 12.85)">
                <path id="Path_441" d="M56.936 20.756q.052-.139.107-.321-.053.143-.107.267v.053m5.449 52.457h.107l.053-.053-.16.053M24.992 14.239A4.843 4.843 0 0 0 23.55 17.5v23.341h9.615V17.5a4.8 4.8 0 0 0-8.173-3.259m19.925 22.434a4.8 4.8 0 0 0-8.173-3.205 4.843 4.843 0 0 0-1.444 3.258v4.113h5.29a7 7 0 0 1 4.327 1.389v-5.555m11.7.107a4.743 4.743 0 0 0-4.808-4.7 4.746 4.746 0 0 0-4.754 4.594v8.173a6.7 6.7 0 0 1 .694 3.1 7.229 7.229 0 0 1-.267 1.976 4.936 4.936 0 0 0 .962 1.335 4.591 4.591 0 0 0 3.365 1.389 4.642 4.642 0 0 0 3.419-1.389v-.06a4.33 4.33 0 0 0 1.389-3.152V36.781m10.31-17.254a4.642 4.642 0 0 0-3.419-1.389 4.744 4.744 0 0 0-4.754 4.647v25.268a6.452 6.452 0 0 1-2.03 4.7 6.7 6.7 0 0 1-4.914 2.03 6.624 6.624 0 0 1-4.861-2.03q-.312-.312-.588-.641a4.612 4.612 0 0 1-.748.748.046.046 0 0 1-.053.053 6.532 6.532 0 0 1-4.97 2.137h-2.3a14.332 14.332 0 0 1 5.128 5.5 1.069 1.069 0 0 1 .107.855.889.889 0 0 1-.534.588.93.93 0 0 1-.8.107 1.071 1.071 0 0 1-.641-.534 13.626 13.626 0 0 0-8.6-6.57 1.044 1.044 0 0 1-.588-.427 1.086 1.086 0 0 1-.16-.748 1.121 1.121 0 0 1 1.068-.908h7.32a4.463 4.463 0 0 0 3.472-1.5q.054 0 .053-.053a3.745 3.745 0 0 0 .908-1.122 1.92 1.92 0 0 0 .267-.534.178.178 0 0 0 .053-.107 5 5 0 0 0 .267-1.656 4.472 4.472 0 0 0-.588-2.3.05.05 0 0 0 0-.053.112.112 0 0 0-.053-.053 4.83 4.83 0 0 0-.855-1.175 4.752 4.752 0 0 0-3.526-1.389H23.55V56.92a23.372 23.372 0 0 0 6.464 16.613 21.707 21.707 0 0 0 4.541 3.739h.053a20.627 20.627 0 0 0 11.378 3.259 20.118 20.118 0 0 0 11.164-3.259 20.03 20.03 0 0 0 4.541-3.739.181.181 0 0 0 .107-.107l-.053.053a23.145 23.145 0 0 0 6.57-16.56v-34.08a4.653 4.653 0 0 0-1.389-3.312z" class="cls-1" data-name="Path 441" transform="translate(-23.55 -12.85)"/>
            </g>
        </g>
        <g id="Path_289" class="cls-2" data-name="Path 289">
            <path d="M42.165 0h3.922a42.165 42.165 0 0 1 0 84.33h-3.922a42.165 42.165 0 0 1 0-84.33z" class="cls-7" transform="translate(403.748 182.418)"/>
            <path d="M42.165 2a40.034 40.034 0 0 0-28.401 11.764A40.034 40.034 0 0 0 2 42.165a40.034 40.034 0 0 0 11.764 28.401A40.034 40.034 0 0 0 42.165 82.33h3.922a40.034 40.034 0 0 0 28.401-11.764 40.034 40.034 0 0 0 11.764-28.4 40.034 40.034 0 0 0-11.764-28.401A40.034 40.034 0 0 0 46.088 2h-3.923m0-2h3.922c23.287 0 42.165 18.878 42.165 42.165S69.374 84.33 46.087 84.33h-3.922C18.878 84.33 0 65.452 0 42.165S18.878 0 42.165 0z" class="cls-8" transform="translate(403.748 182.418)"/>
        </g>
        <circle id="Ellipse_284" cx="3.922" cy="3.922" r="3.922" class="cls-3" data-name="Ellipse 284" transform="translate(409.631 175.554)"/>
        <circle id="Ellipse_288" cx="1.961" cy="1.961" r="1.961" class="cls-4" data-name="Ellipse 288" transform="translate(413.553 164.767)"/>
        <circle id="Ellipse_285" cx="5.393" cy="5.393" r="5.393" class="cls-5" data-name="Ellipse 285" transform="translate(391 185.359)"/>
        <circle id="Ellipse_287" cx="3.922" cy="3.922" r="3.922" class="cls-6" data-name="Ellipse 287" transform="translate(391 171.631)"/>
        <circle id="Ellipse_286" cx="6.864" cy="6.864" r="6.864" class="cls-3" data-name="Ellipse 286" transform="translate(394.922 153)"/>
    </g>
</svg>
