<svg xmlns="http://www.w3.org/2000/svg" viewBox="0 0 64.923 95">
    <defs>
        <style>
            .cls-1{fill:url(#linear-gradient)}
        </style>
        <linearGradient id="linear-gradient" x1=".5" x2=".5" y2="1" gradientUnits="objectBoundingBox">
            <stop offset="0" stop-color="#b5d7ff"/>
            <stop offset=".42" stop-color="#7ebffe"/>
            <stop offset="1" stop-color="#4a90e2"/>
        </linearGradient>
    </defs>
    <g id="SLEEP" transform="translate(-17.529 -2.5)">
        <path id="Path_568" d="M78 89.6l-6.5-3.4c0-9.8-1.1-15.9-3.4-18.3a5.416 5.416 0 0 0-3.7-1.6c-2.5 0-9.2.1-13 .2-1.4-4.7-3.2-10.1-4.2-12.8 3.2-.5 7.4-1.8 9.9-4.8a8.385 8.385 0 0 0 1.8-7c-1-5.4-6.7-7.4-10.5-8.1a9.862 9.862 0 0 1 .3 2.4 9.392 9.392 0 0 1-1.2 4.7c2.2.5 4.2 1.3 4.3 2.3a1.311 1.311 0 0 1-.2 1.1c-1.3 1.5-5.4 2.5-8.5 2.5h-9.6c-3.1 0-7.3-1-8.5-2.5a1.232 1.232 0 0 1-.2-1.1c.2-.9 2.1-1.8 4.3-2.3a10.561 10.561 0 0 1-1.2-4.7 9.863 9.863 0 0 1 .3-2.4c-3.9.7-9.5 2.7-10.5 8.1a8.065 8.065 0 0 0 1.8 7c2.8 3.4 7.8 4.5 11 4.9 1.5 4.8 5.5 17.4 7.1 21.4.9 2.3 3 4.6 6.8 6.3L74.1 97a4.486 4.486 0 0 0 1.9.5 4.047 4.047 0 0 0 3.7-2.3 4.142 4.142 0 0 0-1.7-5.6zM49.7 74.9c2.3 0 8.7-.2 12.6-.2a48.577 48.577 0 0 1 .8 7.2z" class="cls-1" data-name="Path 568"/>
        <circle id="Ellipse_321" cx="8.4" cy="8.4" r="8.4" class="cls-1" data-name="Ellipse 321" transform="translate(29.8 27.9)"/>
        <path id="Path_569" d="M51.3 28.8h8.1a1.538 1.538 0 0 0 1.5-1.5v-1.4a1.538 1.538 0 0 0-1.5-1.5h-3.2a.382.382 0 0 1-.3-.5l4.4-8.1a1.7 1.7 0 0 0-1.5-2.5h-7.4a1.538 1.538 0 0 0-1.5 1.5v1.4a1.538 1.538 0 0 0 1.5 1.5h2.5a.382.382 0 0 1 .3.5l-4.4 8.1a1.7 1.7 0 0 0 1.5 2.5z" class="cls-1" data-name="Path 569"/>
        <path id="Path_570" d="M65 19.7h6.4a1.216 1.216 0 0 0 1.2-1.2v-1.1a1.216 1.216 0 0 0-1.2-1.2h-2.5c-.2 0-.3-.2-.2-.4l3.5-6.4a1.365 1.365 0 0 0-1.2-2h-6a1.216 1.216 0 0 0-1.2 1.2v1.1a1.216 1.216 0 0 0 1.2 1.2h2c.2 0 .3.2.2.4l-3.5 6.4a1.39 1.39 0 0 0 1.3 2z" class="cls-1" data-name="Path 570"/>
        <path id="Path_571" d="M81.6 9.6h-2.1c-.2 0-.3-.2-.2-.3l2.8-5.2a1.081 1.081 0 0 0-1-1.6h-4.8a.9.9 0 0 0-.9.9v.9a.9.9 0 0 0 .9.9h1.6c.2 0 .3.2.2.3l-2.8 5.2a1.081 1.081 0 0 0 1 1.6h5.2a.9.9 0 0 0 .9-.9v-.9c.2-.4-.2-.9-.8-.9z" class="cls-1" data-name="Path 571"/>
    </g>
</svg>
