<svg xmlns="http://www.w3.org/2000/svg" viewBox="0 0 65.676 82.326">
    <defs>
        <style>
            .cls-1{fill:url(#linear-gradient)}
        </style>
        <linearGradient id="linear-gradient" x1=".5" x2=".5" y2="1" gradientUnits="objectBoundingBox">
            <stop offset="0" stop-color="#b5d7ff"/>
            <stop offset=".42" stop-color="#7ebffe"/>
            <stop offset="1" stop-color="#4a90e2"/>
        </linearGradient>
    </defs>
    <g id="Snap" transform="translate(-16.562 -8.238)">
        <path id="Path_594" d="M62 24.052c-1.027-.58 3.951-11.337 3.951-11.337a2.135 2.135 0 0 1 2.908-.81 2.136 2.136 0 0 1 .811 2.909s-6.647 9.817-7.67 9.238z" class="cls-1" data-name="Path 594"/>
        <path id="Path_595" d="M55.323 22.186c-1.179.013-2.246-11.792-2.246-11.792a2.135 2.135 0 0 1 2.115-2.156 2.134 2.134 0 0 1 2.154 2.115s-.846 11.822-2.023 11.833z" class="cls-1" data-name="Path 595"/>
        <path id="Path_596" d="M48.612 23.908c-1.016.6-7.843-9.091-7.843-9.091a2.135 2.135 0 0 1 .754-2.924 2.134 2.134 0 0 1 2.924.755s5.18 10.661 4.165 11.26z" class="cls-1" data-name="Path 596"/>
        <path id="Path_597" d="M80.952 33.68c-1.888-2.24-6.894-1.912-9.736-.094a26.7 26.7 0 0 0-7.816 7.383l-.016.028c-.13.186-.257.374-.381.562a7.555 7.555 0 0 1-4.276 3.014 3.912 3.912 0 0 1-3.38-.992q-.234-.241-.473-.484C45.841 33.91 34.52 25.131 26.381 20.838a4.627 4.627 0 0 0-4.316 8.185c5.681 3 12.623 8.558 19.041 14.841a112.767 112.767 0 0 1 13.962 13.763 6.389 6.389 0 0 1-6.328 10.4 6.445 6.445 0 0 1 .084 1.53 6.381 6.381 0 0 1-7.874 5.805 6.454 6.454 0 0 1 .131 1.787 6.4 6.4 0 0 1-5.493 5.907c6.658 6.283 16.349 11.1 28.833 3.94 7.913-4.539 15.461-13.475 5.041-28.846.848-7.309 2.879-12.993 10.387-17.592 2.826-1.733 3.08-4.534 1.103-6.878z" class="cls-1" data-name="Path 597"/>
        <g id="Group_166" data-name="Group 166">
            <path id="Path_598" d="M50.237 66.271a4.445 4.445 0 0 1-3.372-1.54c-5.387-6.218-10.8-11.341-15.231-14.423a4.458 4.458 0 1 1 5.089-7.322C41.751 46.48 47.746 52.13 53.6 58.893a4.459 4.459 0 0 1-3.368 7.378z" class="cls-1" data-name="Path 598"/>
        </g>
        <g id="Group_167" data-name="Group 167">
            <path id="Path_599" d="M42.446 73.605A4.451 4.451 0 0 1 39.1 72.09a88.113 88.113 0 0 0-14.562-13.652 4.458 4.458 0 1 1 5.089-7.321C35.786 55.4 41.817 61.682 45.792 66.2a4.459 4.459 0 0 1-3.346 7.4z" class="cls-1" data-name="Path 599"/>
        </g>
        <g id="Group_168" data-name="Group 168">
            <path id="Path_600" d="M34.7 81.181a4.449 4.449 0 0 1-3.357-1.522 84.112 84.112 0 0 0-12.938-12.33 4.459 4.459 0 0 1 5.227-7.229 91.675 91.675 0 0 1 14.425 13.687 4.458 4.458 0 0 1-3.357 7.394z" class="cls-1" data-name="Path 600"/>
        </g>
    </g>
</svg>
