<svg xmlns="http://www.w3.org/2000/svg" viewBox="0 0 61.013 61.012">
    <defs>
        <style>
            .cls-1{fill-rule:evenodd;fill:url(#linear-gradient)}
        </style>
        <linearGradient id="linear-gradient" x1=".5" x2=".5" y2="1" gradientUnits="objectBoundingBox">
            <stop offset="0" stop-color="#b5d7ff"/>
            <stop offset=".42" stop-color="#7ebffe"/>
            <stop offset="1" stop-color="#4a90e2"/>
        </linearGradient>
    </defs>
    <path id="STAR" d="M66.843 35.853c-.894.862-4.782 4.3-4.944 4.443-.045.039-4.152 3.695-7.464 6.592.738 3.308 3.045 13.671 3.528 16.062l.127.584c.627 2.85.946 4.768-.249 5.415a1.768 1.768 0 0 1-.852.2 8.27 8.27 0 0 1-3.628-1.4c-1.068-.611-5.431-3.351-5.614-3.471a1216.51 1216.51 0 0 1-8.87-5.589c-3.764 2.4-8.821 5.558-8.87 5.589-.186.121-4.546 2.86-5.615 3.471a8.27 8.27 0 0 1-3.628 1.4 1.783 1.783 0 0 1-.854-.2c-1.193-.647-.873-2.565-.25-5.415.048-.221.093-.423.126-.584.485-2.39 2.794-12.753 3.532-16.062-3.313-2.9-7.422-6.554-7.465-6.592-.161-.143-4.051-3.581-4.942-4.443-1.943-1.872-2.673-3.053-2.522-4.068.2-1.387 2.045-1.682 4.826-1.975.219-.021.416-.042.575-.061 2.318-.284 12.279-1.292 15.433-1.608 1.455-3.644 5.214-13.028 6.138-15.213.064-.155.137-.34.224-.551 1-2.483 1.811-4.241 3.049-4.241l.17.012c.025 0 .048.014.074.02s.046-.015.072-.02l.17-.012c1.24 0 2.047 1.758 3.05 4.241.086.212.162.4.225.551.923 2.184 4.681 11.569 6.137 15.213 3.153.316 13.115 1.325 15.433 1.608.159.018.355.039.574.061 2.781.293 4.621.588 4.826 1.975.149 1.015-.582 2.196-2.522 4.068z" class="cls-1" transform="translate(-8.37 -8.136)"/>
</svg>
