<svg xmlns="http://www.w3.org/2000/svg" viewBox="0 0 84.376 84.376">
    <defs>
        <style>
            .cls-1{fill:url(#linear-gradient)}
        </style>
        <linearGradient id="linear-gradient" x1=".5" x2=".5" y2="1" gradientUnits="objectBoundingBox">
            <stop offset="0" stop-color="#b5d7ff"/>
            <stop offset=".42" stop-color="#7ebffe"/>
            <stop offset="1" stop-color="#4a90e2"/>
        </linearGradient>
    </defs>
    <g id="SUN_shocked" data-name="SUN shocked" transform="translate(-8.068 -7.812)">
        <path id="Path_577" d="M50.256 79.062A29.062 29.062 0 1 0 21.193 50a29.095 29.095 0 0 0 29.063 29.062zm0-56.25A27.188 27.188 0 1 1 23.068 50a27.219 27.219 0 0 1 27.188-27.188z" class="cls-1" data-name="Path 577"/>
        <path id="Path_578" d="M51.193 18.125V8.75a.938.938 0 1 0-1.876 0v9.375a.938.938 0 1 0 1.876 0z" class="cls-1" data-name="Path 578"/>
        <path id="Path_579" d="M51.193 91.25v-9.375a.938.938 0 1 0-1.876 0v9.375a.938.938 0 1 0 1.876 0z" class="cls-1" data-name="Path 579"/>
        <path id="Path_580" d="M9.006 50.938h9.375a.938.938 0 0 0 0-1.876H9.006a.938.938 0 0 0 0 1.876z" class="cls-1" data-name="Path 580"/>
        <path id="Path_581" d="M91.506 49.062h-9.375a.938.938 0 1 0 0 1.876h9.375a.938.938 0 1 0 0-1.876z" class="cls-1" data-name="Path 581"/>
        <path id="Path_582" d="M28.381 26.8l-6.631-6.63a.937.937 0 1 0-1.325 1.326l6.63 6.63a.938.938 0 0 0 1.326-1.326z" class="cls-1" data-name="Path 582"/>
        <path id="Path_583" d="M73.458 71.875a.938.938 0 0 0-1.326 1.325l6.63 6.63a.938.938 0 0 0 1.326-1.33z" class="cls-1" data-name="Path 583"/>
        <path id="Path_584" d="M73.458 28.125l6.63-6.63a.938.938 0 1 0-1.326-1.326l-6.63 6.63a.938.938 0 0 0 1.326 1.326z" class="cls-1" data-name="Path 584"/>
        <path id="Path_585" d="M21.75 79.832l6.631-6.63a.938.938 0 0 0-1.326-1.326l-6.63 6.63a.937.937 0 1 0 1.325 1.326z" class="cls-1" data-name="Path 585"/>
        <path id="Path_586" d="M37.992 21.487h.067a.938.938 0 0 0 .934-.872 6.336 6.336 0 0 0-2.018-5.015c-.941-1.089-1.685-1.948-1.569-3.649a.936.936 0 0 0-.873-1 .972.972 0 0 0-1 .872 6.347 6.347 0 0 0 2.021 5c.943 1.091 1.687 1.952 1.565 3.659a.942.942 0 0 0 .873 1.005z" class="cls-1" data-name="Path 586"/>
        <path id="Path_587" d="M65.979 89.045h.064a.938.938 0 0 0 .934-.875 6.359 6.359 0 0 0-2.023-5c-.942-1.089-1.687-1.95-1.565-3.659a.938.938 0 0 0-.87-1 .966.966 0 0 0-1 .87 6.328 6.328 0 0 0 2.02 5.017c.941 1.088 1.683 1.947 1.569 3.647a.936.936 0 0 0 .871 1z" class="cls-1" data-name="Path 587"/>
        <path id="Path_588" d="M16.405 36.938c1.436.1 2.571.187 3.691 1.479a.945.945 0 0 0 .709.322.938.938 0 0 0 .709-1.553 6.346 6.346 0 0 0-4.974-2.119c-1.434-.1-2.567-.187-3.688-1.47a.938.938 0 1 0-1.414 1.234 6.361 6.361 0 0 0 4.967 2.107z" class="cls-1" data-name="Path 588"/>
        <path id="Path_589" d="M87.661 66.4a.937.937 0 1 0 1.41-1.234 6.356 6.356 0 0 0-4.971-2.104c-1.436-.1-2.571-.185-3.693-1.479a.939.939 0 0 0-1.417 1.231 6.339 6.339 0 0 0 4.977 2.121c1.433.102 2.572.184 3.694 1.465z" class="cls-1" data-name="Path 589"/>
        <path id="Path_590" d="M15.856 63.282c-1.088.941-1.952 1.7-3.646 1.567a.938.938 0 0 0-.129 1.872c.163.011.319.017.471.017a6.473 6.473 0 0 0 4.53-2.038c1.09-.941 1.939-1.683 3.657-1.565a.96.96 0 0 0 1-.87.939.939 0 0 0-.87-1 6.379 6.379 0 0 0-5.013 2.017z" class="cls-1" data-name="Path 590"/>
        <path id="Path_591" d="M78.768 37.737a.94.94 0 0 0 .87 1c.168.011.333.016.49.016a6.467 6.467 0 0 0 4.528-2.036c1.086-.938 1.932-1.673 3.647-1.569a.938.938 0 0 0 .125-1.872 6.352 6.352 0 0 0-5 2.023c-1.092.943-1.963 1.692-3.66 1.565a.96.96 0 0 0-1 .873z" class="cls-1" data-name="Path 591"/>
        <path id="Path_592" d="M35.088 88.816a6.346 6.346 0 0 0 2.1-4.966c.1-1.436.186-2.571 1.478-3.691a.938.938 0 1 0-1.23-1.417 6.33 6.33 0 0 0-2.116 4.973c-.1 1.436-.187 2.569-1.471 3.688a.938.938 0 1 0 1.234 1.413z" class="cls-1" data-name="Path 592"/>
        <path id="Path_593" d="M63.07 21.262a6.337 6.337 0 0 0 2.12-4.977c.1-1.434.185-2.567 1.469-3.689a.937.937 0 0 0-1.234-1.41 6.35 6.35 0 0 0-2.1 4.966c-.1 1.436-.186 2.57-1.479 3.693a.938.938 0 0 0 1.229 1.417z" class="cls-1" data-name="Path 593"/>
        <ellipse id="Ellipse_322" cx="1.875" cy="2.812" class="cls-1" data-name="Ellipse 322" rx="1.875" ry="2.812" transform="translate(39.006 51.876)"/>
        <ellipse id="Ellipse_323" cx="1.875" cy="2.812" class="cls-1" data-name="Ellipse 323" rx="1.875" ry="2.812" transform="translate(57.756 51.876)"/>
        <circle id="Ellipse_324" cx="3.75" cy="3.75" r="3.75" class="cls-1" data-name="Ellipse 324" transform="translate(46.506 59.375)"/>
    </g>
</svg>
