<svg xmlns="http://www.w3.org/2000/svg" viewBox="0 0 84.376 84.376">
    <defs>
        <style>
            .cls-1{fill:url(#linear-gradient)}
        </style>
        <linearGradient id="linear-gradient" x1=".5" x2=".5" y2="1" gradientUnits="objectBoundingBox">
            <stop offset="0" stop-color="#b5d7ff"/>
            <stop offset=".42" stop-color="#7ebffe"/>
            <stop offset="1" stop-color="#4a90e2"/>
        </linearGradient>
    </defs>
    <g id="SUN_angry" transform="translate(-8.068 -7.812)">
        <path id="Path_491" d="M50.256 79.062A29.062 29.062 0 1 0 21.194 50a29.095 29.095 0 0 0 29.062 29.062zm0-56.25A27.188 27.188 0 1 1 23.069 50a27.219 27.219 0 0 1 27.187-27.188z" class="cls-1" data-name="Path 491"/>
        <path id="Path_492" d="M51.194 18.125V8.75a.938.938 0 1 0-1.876 0v9.375a.938.938 0 0 0 1.876 0z" class="cls-1" data-name="Path 492"/>
        <path id="Path_493" d="M51.194 91.25v-9.375a.938.938 0 1 0-1.876 0v9.375a.938.938 0 1 0 1.876 0z" class="cls-1" data-name="Path 493"/>
        <path id="Path_494" d="M9.006 50.938h9.375a.938.938 0 0 0 0-1.876H9.006a.938.938 0 0 0 0 1.876z" class="cls-1" data-name="Path 494"/>
        <path id="Path_495" d="M91.506 49.062h-9.375a.938.938 0 1 0 0 1.876h9.375a.938.938 0 1 0 0-1.876z" class="cls-1" data-name="Path 495"/>
        <path id="Path_496" d="M28.381 26.8l-6.63-6.63a.938.938 0 1 0-1.326 1.326l6.63 6.63a.938.938 0 0 0 1.326-1.326z" class="cls-1" data-name="Path 496"/>
        <path id="Path_497" d="M73.458 71.875a.938.938 0 0 0-1.326 1.325l6.63 6.63a.938.938 0 0 0 1.326-1.33z" class="cls-1" data-name="Path 497"/>
        <path id="Path_498" d="M73.458 28.125l6.63-6.63a.938.938 0 1 0-1.326-1.326l-6.63 6.63a.938.938 0 0 0 1.326 1.326z" class="cls-1" data-name="Path 498"/>
        <path id="Path_499" d="M21.75 79.832l6.63-6.63a.938.938 0 0 0-1.326-1.326l-6.63 6.63a.938.938 0 1 0 1.326 1.326z" class="cls-1" data-name="Path 499"/>
        <path id="Path_500" d="M37.992 21.487h.067a.938.938 0 0 0 .934-.872 6.34 6.34 0 0 0-2.018-5.015c-.941-1.089-1.685-1.948-1.569-3.649a.936.936 0 0 0-.873-1 .979.979 0 0 0-1 .872 6.347 6.347 0 0 0 2.021 5c.943 1.091 1.687 1.952 1.565 3.659a.941.941 0 0 0 .873 1.005z" class="cls-1" data-name="Path 500"/>
        <path id="Path_501" d="M65.979 89.045h.064a.937.937 0 0 0 .934-.875 6.359 6.359 0 0 0-2.023-5c-.943-1.089-1.687-1.95-1.565-3.659a.938.938 0 0 0-.87-1 .963.963 0 0 0-1 .87 6.328 6.328 0 0 0 2.02 5.017c.941 1.088 1.683 1.947 1.569 3.647a.936.936 0 0 0 .871 1z" class="cls-1" data-name="Path 501"/>
        <path id="Path_502" d="M16.406 36.938c1.436.1 2.571.187 3.691 1.479a.938.938 0 1 0 1.416-1.231 6.344 6.344 0 0 0-4.973-2.119c-1.434-.1-2.567-.187-3.688-1.47a.938.938 0 1 0-1.413 1.234 6.359 6.359 0 0 0 4.967 2.107z" class="cls-1" data-name="Path 502"/>
        <path id="Path_503" d="M87.661 66.4a.937.937 0 1 0 1.41-1.234 6.356 6.356 0 0 0-4.971-2.104c-1.436-.1-2.571-.185-3.693-1.479a.939.939 0 0 0-1.417 1.231 6.34 6.34 0 0 0 4.977 2.121c1.433.102 2.572.184 3.694 1.465z" class="cls-1" data-name="Path 503"/>
        <path id="Path_504" d="M15.856 63.282c-1.088.941-1.95 1.7-3.646 1.567a.938.938 0 0 0-.128 1.872c.163.011.319.017.471.017a6.477 6.477 0 0 0 4.53-2.038c1.09-.941 1.946-1.683 3.657-1.565a.962.962 0 0 0 1-.87.939.939 0 0 0-.87-1 6.366 6.366 0 0 0-5.014 2.017z" class="cls-1" data-name="Path 504"/>
        <path id="Path_505" d="M78.768 37.737a.939.939 0 0 0 .87 1c.168.011.333.016.49.016a6.467 6.467 0 0 0 4.528-2.036c1.086-.938 1.934-1.673 3.647-1.569a.938.938 0 1 0 .124-1.872 6.328 6.328 0 0 0-5 2.023c-1.091.943-1.959 1.692-3.66 1.565a.959.959 0 0 0-.999.873z" class="cls-1" data-name="Path 505"/>
        <path id="Path_506" d="M35.088 88.816a6.346 6.346 0 0 0 2.1-4.966c.1-1.436.185-2.571 1.478-3.691a.939.939 0 0 0-1.231-1.417 6.334 6.334 0 0 0-2.117 4.973c-.1 1.436-.187 2.569-1.471 3.688a.938.938 0 0 0 .618 1.645.949.949 0 0 0 .623-.232z" class="cls-1" data-name="Path 506"/>
        <path id="Path_507" d="M63.07 21.262a6.34 6.34 0 0 0 2.12-4.977c.1-1.434.185-2.567 1.469-3.689a.937.937 0 0 0-1.234-1.41 6.35 6.35 0 0 0-2.1 4.966c-.1 1.436-.185 2.57-1.479 3.693a.938.938 0 0 0 1.229 1.417z" class="cls-1" data-name="Path 507"/>
        <path id="Path_508" d="M40.881 57.5c1.037 0 1.875-1.26 1.875-2.812a4.259 4.259 0 0 0-.062-.688l-2.985-1.492a3.447 3.447 0 0 0-.7 2.179c-.003 1.553.836 2.813 1.872 2.813z" class="cls-1" data-name="Path 508"/>
        <path id="Path_509" d="M59.631 57.5c1.037 0 1.875-1.26 1.875-2.812a3.449 3.449 0 0 0-.7-2.179L57.818 54a4.249 4.249 0 0 0-.062.687c0 1.553.844 2.813 1.875 2.813z" class="cls-1" data-name="Path 509"/>
        <path id="Path_510" d="M42.756 68.75a.937.937 0 0 0 .938-.938 6.562 6.562 0 1 1 13.124 0 .938.938 0 1 0 1.876 0 8.438 8.438 0 0 0-16.876 0 .938.938 0 0 0 .938.938z" class="cls-1" data-name="Path 510"/>
    </g>
</svg>
