<svg xmlns="http://www.w3.org/2000/svg" viewBox="0 0 84.377 84.376">
    <defs>
        <style>
            .cls-1{fill:url(#linear-gradient)}
        </style>
        <linearGradient id="linear-gradient" x1=".5" x2=".5" y2="1" gradientUnits="objectBoundingBox">
            <stop offset="0" stop-color="#b5d7ff"/>
            <stop offset=".42" stop-color="#7ebffe"/>
            <stop offset="1" stop-color="#4a90e2"/>
        </linearGradient>
    </defs>
    <g id="SUN_Neutral" transform="translate(-7.812 -7.812)">
        <path id="Path_470" d="M50 79.062A29.062 29.062 0 1 0 20.938 50 29.095 29.095 0 0 0 50 79.062zm0-56.25A27.188 27.188 0 1 1 22.812 50 27.219 27.219 0 0 1 50 22.812z" class="cls-1" data-name="Path 470"/>
        <path id="Path_471" d="M50.938 18.125V8.75a.938.938 0 1 0-1.876 0v9.375a.938.938 0 0 0 1.876 0z" class="cls-1" data-name="Path 471"/>
        <path id="Path_472" d="M50.938 91.25v-9.375a.938.938 0 1 0-1.876 0v9.375a.938.938 0 1 0 1.876 0z" class="cls-1" data-name="Path 472"/>
        <path id="Path_473" d="M8.75 50.938h9.375a.938.938 0 1 0 0-1.876H8.75a.938.938 0 1 0 0 1.876z" class="cls-1" data-name="Path 473"/>
        <path id="Path_474" d="M91.25 49.062h-9.375a.938.938 0 1 0 0 1.876h9.375a.938.938 0 1 0 0-1.876z" class="cls-1" data-name="Path 474"/>
        <path id="Path_475" d="M28.124 26.8l-6.63-6.63a.938.938 0 1 0-1.326 1.326l6.631 6.63a.937.937 0 1 0 1.325-1.326z" class="cls-1" data-name="Path 475"/>
        <path id="Path_476" d="M73.2 71.875a.937.937 0 0 0-1.324 1.325l6.63 6.63a.938.938 0 0 0 1.326-1.33z" class="cls-1" data-name="Path 476"/>
        <path id="Path_477" d="M73.2 28.125l6.631-6.63a.938.938 0 1 0-1.326-1.326l-6.63 6.63a.937.937 0 0 0 1.325 1.326z" class="cls-1" data-name="Path 477"/>
        <path id="Path_478" d="M21.494 79.832l6.63-6.63a.937.937 0 0 0-1.324-1.326l-6.631 6.63a.938.938 0 1 0 1.326 1.326z" class="cls-1" data-name="Path 478"/>
        <path id="Path_479" d="M37.735 21.487h.068a.939.939 0 0 0 .934-.872 6.34 6.34 0 0 0-2.018-5.015c-.941-1.089-1.685-1.948-1.569-3.649a.937.937 0 0 0-.874-1 .964.964 0 0 0-1 .872 6.347 6.347 0 0 0 2.021 5c.942 1.091 1.686 1.952 1.565 3.659a.94.94 0 0 0 .873 1.005z" class="cls-1" data-name="Path 479"/>
        <path id="Path_480" d="M65.724 89.045h.063a.937.937 0 0 0 .934-.875 6.359 6.359 0 0 0-2.022-5c-.943-1.089-1.687-1.95-1.565-3.659a.939.939 0 0 0-.87-1 .968.968 0 0 0-1 .87 6.332 6.332 0 0 0 2.02 5.017c.941 1.088 1.683 1.947 1.569 3.647a.936.936 0 0 0 .871 1z" class="cls-1" data-name="Path 480"/>
        <path id="Path_481" d="M16.149 36.938c1.436.1 2.57.187 3.691 1.479a.939.939 0 0 0 1.417-1.231 6.344 6.344 0 0 0-4.973-2.119c-1.434-.1-2.567-.187-3.688-1.47a.938.938 0 1 0-1.413 1.234 6.358 6.358 0 0 0 4.966 2.107z" class="cls-1" data-name="Path 481"/>
        <path id="Path_482" d="M87.4 66.4a.937.937 0 1 0 1.41-1.234 6.354 6.354 0 0 0-4.966-2.106c-1.436-.1-2.57-.185-3.693-1.479a.939.939 0 0 0-1.417 1.231 6.342 6.342 0 0 0 4.977 2.121c1.437.104 2.571.186 3.689 1.467z" class="cls-1" data-name="Path 482"/>
        <path id="Path_483" d="M15.6 63.282c-1.087.941-1.953 1.7-3.646 1.567a.938.938 0 0 0-.128 1.872c.163.011.318.017.471.017a6.475 6.475 0 0 0 4.53-2.038c1.089-.941 1.946-1.683 3.656-1.565a.96.96 0 0 0 1-.87.94.94 0 0 0-.87-1 6.369 6.369 0 0 0-5.013 2.017z" class="cls-1" data-name="Path 483"/>
        <path id="Path_484" d="M78.512 37.737a.939.939 0 0 0 .869 1c.169.011.334.016.491.016a6.471 6.471 0 0 0 4.528-2.034c1.087-.938 1.932-1.673 3.647-1.569a.952.952 0 0 0 1-.874.937.937 0 0 0-.873-1 6.337 6.337 0 0 0-5 2.023c-1.091.943-1.953 1.692-3.66 1.565a.961.961 0 0 0-1.002.873z" class="cls-1" data-name="Path 484"/>
        <path id="Path_485" d="M34.832 88.816a6.349 6.349 0 0 0 2.1-4.966c.1-1.436.185-2.571 1.478-3.691a.938.938 0 0 0-1.23-1.417 6.334 6.334 0 0 0-2.117 4.973c-.1 1.436-.187 2.569-1.47 3.688a.938.938 0 1 0 1.234 1.413z" class="cls-1" data-name="Path 485"/>
        <path id="Path_486" d="M62.813 21.262a6.337 6.337 0 0 0 2.12-4.977c.1-1.434.186-2.567 1.469-3.689a.937.937 0 0 0-1.234-1.41 6.353 6.353 0 0 0-2.1 4.966c-.1 1.436-.185 2.57-1.479 3.693a.938.938 0 0 0 1.229 1.417z" class="cls-1" data-name="Path 486"/>
        <ellipse id="Ellipse_319" cx="1.875" cy="2.812" class="cls-1" data-name="Ellipse 319" rx="1.875" ry="2.812" transform="translate(38.75 51.876)"/>
        <ellipse id="Ellipse_320" cx="1.875" cy="2.812" class="cls-1" data-name="Ellipse 320" rx="1.875" ry="2.812" transform="translate(57.5 51.876)"/>
        <path id="Path_487" d="M41.562 65a.937.937 0 0 0 .938.938h15a.938.938 0 0 0 0-1.876h-15a.937.937 0 0 0-.938.938z" class="cls-1" data-name="Path 487"/>
    </g>
</svg>
