<svg xmlns="http://www.w3.org/2000/svg" viewBox="0 0 84.377 84.376">
    <defs>
        <style>
            .cls-1{fill:url(#linear-gradient)}
        </style>
        <linearGradient id="linear-gradient" x1=".5" x2=".5" y2="1" gradientUnits="objectBoundingBox">
            <stop offset="0" stop-color="#b5d7ff"/>
            <stop offset=".42" stop-color="#7ebffe"/>
            <stop offset="1" stop-color="#4a90e2"/>
        </linearGradient>
    </defs>
    <g id="SUN_HAPPY" data-name="SUN HAPPY" transform="translate(-7.812 -7.812)">
        <path id="Path_618" d="M50 79.062A29.062 29.062 0 1 0 20.938 50 29.095 29.095 0 0 0 50 79.062zm0-56.25A27.188 27.188 0 1 1 22.812 50 27.219 27.219 0 0 1 50 22.812z" class="cls-1" data-name="Path 618"/>
        <path id="Path_619" d="M50.938 18.125V8.75a.938.938 0 1 0-1.876 0v9.375a.938.938 0 0 0 1.876 0z" class="cls-1" data-name="Path 619"/>
        <path id="Path_620" d="M50.938 91.25v-9.375a.938.938 0 1 0-1.876 0v9.375a.938.938 0 1 0 1.876 0z" class="cls-1" data-name="Path 620"/>
        <path id="Path_621" d="M8.75 50.938h9.375a.938.938 0 1 0 0-1.876H8.75a.938.938 0 1 0 0 1.876z" class="cls-1" data-name="Path 621"/>
        <path id="Path_622" d="M91.25 49.062h-9.375a.938.938 0 1 0 0 1.876h9.375a.938.938 0 1 0 0-1.876z" class="cls-1" data-name="Path 622"/>
        <path id="Path_623" d="M28.125 26.8l-6.63-6.63a.938.938 0 1 0-1.326 1.326l6.63 6.63a.938.938 0 1 0 1.326-1.326z" class="cls-1" data-name="Path 623"/>
        <path id="Path_624" d="M73.2 71.875a.938.938 0 0 0-1.325 1.325l6.63 6.63a.938.938 0 0 0 1.326-1.33z" class="cls-1" data-name="Path 624"/>
        <path id="Path_625" d="M73.2 28.125l6.63-6.63a.938.938 0 1 0-1.33-1.326l-6.63 6.63a.938.938 0 0 0 1.33 1.326z" class="cls-1" data-name="Path 625"/>
        <path id="Path_626" d="M21.494 79.832l6.63-6.63a.938.938 0 0 0-1.324-1.326l-6.63 6.63a.938.938 0 1 0 1.326 1.326z" class="cls-1" data-name="Path 626"/>
        <path id="Path_627" d="M37.735 21.487h.068a.938.938 0 0 0 .934-.872 6.34 6.34 0 0 0-2.018-5.015c-.941-1.089-1.685-1.948-1.569-3.649a.937.937 0 0 0-.874-1 .973.973 0 0 0-1 .872 6.347 6.347 0 0 0 2.021 5c.943 1.091 1.687 1.952 1.565 3.659a.942.942 0 0 0 .873 1.005z" class="cls-1" data-name="Path 627"/>
        <path id="Path_628" d="M65.723 89.045h.064a.937.937 0 0 0 .934-.875 6.359 6.359 0 0 0-2.023-5c-.943-1.089-1.686-1.95-1.565-3.659a.938.938 0 0 0-.87-1 .977.977 0 0 0-1 .87 6.332 6.332 0 0 0 2.02 5.017c.941 1.088 1.683 1.947 1.569 3.647a.937.937 0 0 0 .871 1z" class="cls-1" data-name="Path 628"/>
        <path id="Path_629" d="M16.149 36.938c1.436.1 2.571.187 3.691 1.479a.938.938 0 1 0 1.416-1.231 6.344 6.344 0 0 0-4.973-2.119c-1.434-.1-2.567-.187-3.688-1.47a.938.938 0 1 0-1.414 1.234 6.363 6.363 0 0 0 4.968 2.107z" class="cls-1" data-name="Path 629"/>
        <path id="Path_630" d="M87.4 66.4a.937.937 0 1 0 1.41-1.234 6.354 6.354 0 0 0-4.966-2.106c-1.436-.1-2.57-.185-3.693-1.479a.939.939 0 0 0-1.418 1.231 6.342 6.342 0 0 0 4.977 2.121c1.439.104 2.572.186 3.69 1.467z" class="cls-1" data-name="Path 630"/>
        <path id="Path_631" d="M15.6 63.282c-1.088.941-1.947 1.7-3.646 1.567a.929.929 0 0 0-1 .872.939.939 0 0 0 .872 1c.163.011.318.017.471.017a6.477 6.477 0 0 0 4.53-2.038c1.089-.941 1.941-1.683 3.657-1.565a.963.963 0 0 0 1-.87.938.938 0 0 0-.87-1 6.372 6.372 0 0 0-5.014 2.017z" class="cls-1" data-name="Path 631"/>
        <path id="Path_632" d="M78.511 37.737a.939.939 0 0 0 .87 1c.169.011.333.016.491.016a6.471 6.471 0 0 0 4.528-2.034c1.086-.938 1.934-1.673 3.647-1.569a.938.938 0 1 0 .124-1.872 6.343 6.343 0 0 0-5 2.023c-1.091.943-1.968 1.692-3.661 1.565a.958.958 0 0 0-.999.871z" class="cls-1" data-name="Path 632"/>
        <path id="Path_633" d="M34.832 88.816a6.351 6.351 0 0 0 2.106-4.966c.1-1.436.185-2.571 1.478-3.691a.939.939 0 0 0-1.231-1.417 6.334 6.334 0 0 0-2.117 4.973c-.1 1.436-.187 2.569-1.47 3.688a.938.938 0 0 0 .617 1.645.948.948 0 0 0 .617-.232z" class="cls-1" data-name="Path 633"/>
        <path id="Path_634" d="M62.813 21.262a6.342 6.342 0 0 0 2.121-4.977c.1-1.434.185-2.567 1.468-3.689a.937.937 0 0 0-1.234-1.41 6.354 6.354 0 0 0-2.106 4.966c-.1 1.436-.185 2.57-1.479 3.693a.938.938 0 0 0 1.23 1.417z" class="cls-1" data-name="Path 634"/>
        <ellipse id="Ellipse_326" cx="1.875" cy="2.812" class="cls-1" data-name="Ellipse 326" rx="1.875" ry="2.812" transform="translate(38.75 51.876)"/>
        <ellipse id="Ellipse_327" cx="1.875" cy="2.812" class="cls-1" data-name="Ellipse 327" rx="1.875" ry="2.812" transform="translate(57.5 51.876)"/>
        <path id="Path_656" d="M42.756 68.75a.937.937 0 0 0 .938-.938 6.562 6.562 0 1 1 13.124 0 .938.938 0 1 0 1.876 0 8.438 8.438 0 0 0-16.876 0 .938.938 0 0 0 .938.938z" class="cls-1" data-name="Path 656" transform="rotate(180 50.128 65.062)"/>
    </g>
</svg>
