<svg xmlns="http://www.w3.org/2000/svg" viewBox="0 0 84.375 84.374">
    <defs>
        <style>
            .cls-1{fill:url(#linear-gradient)}
        </style>
        <linearGradient id="linear-gradient" x1=".5" x2=".5" y2="1" gradientUnits="objectBoundingBox">
            <stop offset="0" stop-color="#b5d7ff"/>
            <stop offset=".42" stop-color="#7ebffe"/>
            <stop offset="1" stop-color="#4a90e2"/>
        </linearGradient>
    </defs>
    <g id="SUN_wink" transform="translate(-7.813 -7.813)">
        <path id="Path_636" d="M50 79.062A29.062 29.062 0 1 0 20.937 50 29.1 29.1 0 0 0 50 79.062zm0-56.25A27.188 27.188 0 1 1 22.813 50 27.219 27.219 0 0 1 50 22.812z" class="cls-1" data-name="Path 636"/>
        <path id="Path_637" d="M50.938 18.125V8.75a.938.938 0 0 0-1.876 0v9.376a.938.938 0 0 0 1.876 0z" class="cls-1" data-name="Path 637"/>
        <path id="Path_638" d="M50.938 91.25v-9.376a.938.938 0 0 0-1.876 0v9.376a.938.938 0 0 0 1.876 0z" class="cls-1" data-name="Path 638"/>
        <path id="Path_639" d="M8.751 50.937h9.373a.937.937 0 1 0 0-1.874H8.751a.937.937 0 1 0 0 1.874z" class="cls-1" data-name="Path 639"/>
        <path id="Path_640" d="M80.938 50a.937.937 0 0 0 .938.937h9.374a.937.937 0 1 0 0-1.874h-9.374a.936.936 0 0 0-.938.937z" class="cls-1" data-name="Path 640"/>
        <path id="Path_641" d="M28.124 26.8L21.5 20.169a.938.938 0 0 0-1.327 1.325l6.631 6.63a.937.937 0 0 0 1.32-1.324z" class="cls-1" data-name="Path 641"/>
        <path id="Path_642" d="M73.2 71.876a.937.937 0 0 0-1.324 1.324l6.63 6.63a.937.937 0 1 0 1.326-1.325z" class="cls-1" data-name="Path 642"/>
        <path id="Path_643" d="M73.2 28.124l6.631-6.63a.937.937 0 0 0-1.326-1.325l-6.63 6.63a.937.937 0 0 0 1.325 1.325z" class="cls-1" data-name="Path 643"/>
        <path id="Path_644" d="M21.5 79.831l6.629-6.63a.937.937 0 0 0-1.329-1.325l-6.631 6.63a.938.938 0 0 0 1.331 1.325z" class="cls-1" data-name="Path 644"/>
        <path id="Path_645" d="M37.734 21.487h.066a.938.938 0 0 0 .934-.871 6.339 6.339 0 0 0-2.015-5.016c-.942-1.09-1.686-1.948-1.569-3.649a.939.939 0 0 0-.874-1 .957.957 0 0 0-1 .871 6.341 6.341 0 0 0 2.021 5c.942 1.091 1.685 1.953 1.566 3.659a.939.939 0 0 0 .871 1.006z" class="cls-1" data-name="Path 645"/>
        <path id="Path_646" d="M65.724 89.045h.063a.938.938 0 0 0 .934-.876 6.355 6.355 0 0 0-2.023-5c-.942-1.09-1.686-1.95-1.564-3.659a.941.941 0 0 0-.87-1 .969.969 0 0 0-1 .87 6.335 6.335 0 0 0 2.02 5.018c.941 1.088 1.683 1.946 1.569 3.647a.937.937 0 0 0 .871 1z" class="cls-1" data-name="Path 646"/>
        <path id="Path_647" d="M16.148 36.938c1.436.1 2.571.187 3.691 1.479a.944.944 0 0 0 .71.322.937.937 0 0 0 .708-1.553 6.346 6.346 0 0 0-4.973-2.119c-1.435-.1-2.568-.187-3.689-1.47a.938.938 0 1 0-1.412 1.234 6.359 6.359 0 0 0 4.965 2.107z" class="cls-1" data-name="Path 647"/>
        <path id="Path_648" d="M87.4 66.4a.936.936 0 1 0 1.409-1.233 6.35 6.35 0 0 0-4.966-2.106c-1.435-.1-2.57-.185-3.693-1.479a.938.938 0 1 0-1.417 1.23 6.342 6.342 0 0 0 4.977 2.12c1.439.105 2.572.187 3.69 1.468z" class="cls-1" data-name="Path 648"/>
        <path id="Path_649" d="M15.6 63.282c-1.088.942-1.958 1.7-3.646 1.568a.923.923 0 0 0-1 .872.939.939 0 0 0 .872 1c.162.011.318.017.47.017a6.482 6.482 0 0 0 4.532-2.039c1.088-.941 1.938-1.683 3.656-1.565a.96.96 0 0 0 1-.87.939.939 0 0 0-.87-1 6.374 6.374 0 0 0-5.014 2.017z" class="cls-1" data-name="Path 649"/>
        <path id="Path_650" d="M78.512 37.737a.939.939 0 0 0 .87 1c.167.011.333.016.49.016a6.469 6.469 0 0 0 4.528-2.034c1.086-.938 1.916-1.674 3.647-1.57a.96.96 0 0 0 1-.874.938.938 0 0 0-.873-1 6.324 6.324 0 0 0-5 2.024c-1.09.942-1.955 1.691-3.658 1.565a.962.962 0 0 0-1.004.873z" class="cls-1" data-name="Path 650"/>
        <path id="Path_651" d="M34.832 88.817a6.353 6.353 0 0 0 2.1-4.966c.1-1.436.185-2.571 1.477-3.691a.939.939 0 1 0-1.23-1.418 6.333 6.333 0 0 0-2.116 4.973c-.1 1.436-.187 2.57-1.47 3.688a.938.938 0 0 0 1.234 1.414z" class="cls-1" data-name="Path 651"/>
        <path id="Path_652" d="M62.814 21.262a6.339 6.339 0 0 0 2.12-4.977c.1-1.434.185-2.567 1.468-3.69a.936.936 0 1 0-1.234-1.409 6.357 6.357 0 0 0-2.1 4.966c-.1 1.436-.185 2.57-1.479 3.693a.938.938 0 0 0 1.23 1.417z" class="cls-1" data-name="Path 652"/>
        <ellipse id="Ellipse_328" cx="1.874" cy="2.812" class="cls-1" data-name="Ellipse 328" rx="1.874" ry="2.812" transform="translate(57.502 51.876)"/>
        <path id="Path_653" d="M41.562 63.125a.938.938 0 0 0 .938.937h8.438v2.812a3.75 3.75 0 1 0 7.5 0v-3.75a.937.937 0 0 0-.938-.938h-15a.94.94 0 0 0-.938.939zm13.125 5.625a1.877 1.877 0 0 1-1.874-1.875v-2.812h3.751v2.812a1.879 1.879 0 0 1-1.877 1.875z" class="cls-1" data-name="Path 653"/>
        <path id="Path_654" d="M39.688 55.625h3.748a.938.938 0 1 0 0-1.875h-3.748a.938.938 0 1 0 0 1.875z" class="cls-1" data-name="Path 654"/>
    </g>
</svg>
