<svg xmlns="http://www.w3.org/2000/svg" viewBox="0 0 99.999 83.659">
    <defs>
        <style>
            .cls-1{fill-rule:evenodd;fill:url(#linear-gradient)}
        </style>
        <linearGradient id="linear-gradient" x1=".5" x2=".5" y2="1" gradientUnits="objectBoundingBox">
            <stop offset="0" stop-color="#b5d7ff"/>
            <stop offset=".42" stop-color="#7ebffe"/>
            <stop offset="1" stop-color="#4a90e2"/>
        </linearGradient>
    </defs>
    <g id="noun_surf_1023643_000000" transform="translate(-.002 -8.171)">
        <path id="Path_609" d="M41.647 15.331a7.16 7.16 0 1 1 7.16 7.159 7.16 7.16 0 0 1-7.16-7.159zm11.337 58.782s-7.127 7.648-15.135 7.648l.111-8.135s-14.749 1.693-18.753-2.311l19.371-6.271a3.744 3.744 0 0 1-.708-2.188v-9.28A3.772 3.772 0 0 1 38.886 51l5.479-5.871v-13.09l-6.665 2.22-5.458 10.086a3.023 3.023 0 0 1-5.316-2.879l6.033-11.136a3.021 3.021 0 0 1 1.7-1.428s13.158-4.331 13.484-4.331h12.94l10.238-7.41a3.022 3.022 0 0 1 3.545 4.9l-11.031 7.98a3.03 3.03 0 0 1-1.773.574h-5.854V42l7.792.618a3.779 3.779 0 0 1 2.923 1.792l6.128 10 26.039-8.029s-.264 16.61-46.106 27.732zM65.6 56.712L61.487 50s-10.087-.87-10.428-1c-.055.065-.1.137-.153.2l-5.479 5.871v7.791c0 .026-.007.051-.007.078zm30.6 19.231c-6.072 0-9.234 2.838-11.775 5.115-2.132 1.912-3.535 3.174-6.705 3.174s-4.568-1.262-6.7-3.174c-2.541-2.277-5.7-5.115-11.774-5.115s-9.238 2.838-11.78 5.115c-2.128 1.912-3.535 3.174-6.7 3.174s-4.577-1.262-6.7-3.174c-2.542-2.278-5.7-5.115-11.78-5.115s-9.238 2.837-11.775 5.115C8.374 82.97 6.967 84.232 3.8 84.232a3.8 3.8 0 0 0 0 7.6c6.077 0 9.238-2.836 11.779-5.115 2.132-1.911 3.54-3.173 6.7-3.173s4.577 1.262 6.7 3.173c2.542 2.279 5.707 5.115 11.779 5.115S50 88.994 52.541 86.715c2.133-1.911 3.539-3.173 6.705-3.173s4.572 1.262 6.7 3.173c2.543 2.279 5.7 5.115 11.775 5.115s9.238-2.836 11.779-5.115c2.128-1.911 3.536-3.173 6.7-3.173a3.8 3.8 0 1 0 0-7.6z" class="cls-1" data-name="Path 609"/>
    </g>
</svg>
