<svg xmlns="http://www.w3.org/2000/svg" viewBox="0 0 93.101 95.496">
    <defs>
        <style>
            .cls-1{fill:url(#linear-gradient)}
        </style>
        <linearGradient id="linear-gradient" x1=".5" x2=".5" y2="1" gradientUnits="objectBoundingBox">
            <stop offset="0" stop-color="#b5d7ff"/>
            <stop offset=".42" stop-color="#7ebffe"/>
            <stop offset="1" stop-color="#4a90e2"/>
        </linearGradient>
    </defs>
    <g id="Surfer" transform="translate(-3.4 -2.004)">
        <path id="Path_615" d="M30.2 52.3l1.9-17c-16.8 2.4-28.7 8.2-28.7 15 0 6.3 10.2 11.7 25 14.4.7-4.8 1.5-10.5 1.8-12.4z" class="cls-1" data-name="Path 615"/>
        <path id="Path_616" d="M60.9 34.7c.2.8.5 1.6.7 2.3s.7 2.1.9 2.7c1 1.2 4 4.6 6.6 7.3a7.827 7.827 0 0 1 2.2 5.8 7.722 7.722 0 0 1-2.5 5.7 7.865 7.865 0 0 1-5.6 2.3 8.686 8.686 0 0 1-4.1-1.1 50.7 50.7 0 0 1 3 5.2 6.374 6.374 0 0 1 .2.7C82 62.7 96.5 53.9 96.5 50.3c.1-3.8-15.1-13-35.6-15.6z" class="cls-1" data-name="Path 616"/>
        <path id="Path_617" d="M50.3 54.8l1.1-10.1a10.191 10.191 0 0 0 .8 1.5 101.2 101.2 0 0 0 8.2 9.3 3.992 3.992 0 0 0 5.7.2 3.984 3.984 0 0 0 .1-5.7c-2.3-2.4-6.3-6.8-7.3-8.2-.2-.5-.8-2.2-1.2-3.5-2.1-6.6-4.2-13.5-9.3-14-.3 0-.7-.1-1-.1-1.1 0-3.6-.1-6.4-.2a3.923 3.923 0 0 0-4 3.5l-2.9 25.3c-.4 3-2.1 14.7-2.5 18.3-.4 3.2-2.7 15-3.8 20.8a4.687 4.687 0 0 0 3.7 5.5 2.769 2.769 0 0 0 .9.1 4.708 4.708 0 0 0 4.6-3.8c.1-.7 3.4-17.1 3.9-21.4.3-2.2 1-7.5 1.6-11.9 3 3.1 6.3 7.6 7 9.5.7 2 1.9 13.6 2.8 23.2a4.687 4.687 0 0 0 4.7 4.3h.4a4.714 4.714 0 0 0 4.3-5.1c-.7-8.3-2.1-22.7-3.4-25.9-.6-1.8-3.9-7.2-8-11.6z" class="cls-1" data-name="Path 617"/>
        <circle id="Ellipse_325" cx="9.5" cy="9.5" r="9.5" class="cls-1" data-name="Ellipse 325" transform="rotate(-87.42 29.067 -8.432)"/>
    </g>
</svg>
