<svg xmlns="http://www.w3.org/2000/svg" viewBox="0 0 99 63.001">
    <defs>
        <style>
            .cls-1{fill:url(#linear-gradient)}
        </style>
        <linearGradient id="linear-gradient" x1=".5" x2=".5" y2="1" gradientUnits="objectBoundingBox">
            <stop offset="0" stop-color="#b5d7ff"/>
            <stop offset=".42" stop-color="#7ebffe"/>
            <stop offset="1" stop-color="#4a90e2"/>
        </linearGradient>
    </defs>
    <g id="SURF_BUS" data-name="SURF BUS" transform="translate(-.5 -18.499)">
        <g id="Group_170" data-name="Group 170">
            <path id="Path_612" d="M97.5 66.551V61A29.536 29.536 0 0 0 68 31.5H57.5v-3.086a192.709 192.709 0 0 0 22.572-1.67l4.84 3.59a3.469 3.469 0 0 0 2.075.7 3.517 3.517 0 0 0 1.587-.385A3.442 3.442 0 0 0 90.5 27.52v-3.034a21.277 21.277 0 0 0 3.733-1.57 1.5 1.5 0 0 0 .708-1.723 1.519 1.519 0 0 0-1.515-1.084c-6.959.34-12.329.4-21.043.4L59.5 20.5c-2.338 0-4.816.01-7.39.02-2.774.011-5.659.021-8.6.021-13.822 0-29.3-.24-39.251-2.019a1.5 1.5 0 0 0-1.324 2.537c3.121 3.121 13.433 5.29 25.6 6.45V31.5H17A12.517 12.517 0 0 0 4.5 44v5.5h18.07v3H4.5v14H3A2.505 2.505 0 0 0 .5 69v2A2.506 2.506 0 0 0 3 73.5h9.13a9.487 9.487 0 0 0 18.74 0h34.76a9.487 9.487 0 0 0 18.74 0H97.5v-.051a2.507 2.507 0 0 0 2-2.449v-2a2.505 2.505 0 0 0-2-2.449zm-10-39.03a.466.466 0 0 1-.277.449.459.459 0 0 1-.524-.046l-2.515-1.865q1.769-.34 3.316-.722zm-55.956.252c6.018.482 12.37.727 18.456.727q2.293 0 4.5-.031V31.5H31.544zM21.5 78.5A6.5 6.5 0 1 1 28 72a6.508 6.508 0 0 1-6.5 6.5zm8-29.167v-8.667a2.174 2.174 0 0 1 2.167-2.166h10.666a2.174 2.174 0 0 1 2.167 2.166v8.667a2.173 2.173 0 0 1-2.167 2.167H31.667a2.173 2.173 0 0 1-2.167-2.167zm34 20.167h-31v-3h31zm0-20.167a2.173 2.173 0 0 1-2.166 2.167H50.667a2.173 2.173 0 0 1-2.167-2.167v-8.667a2.174 2.174 0 0 1 2.167-2.166h10.667a2.174 2.174 0 0 1 2.166 2.166zM75 78.5a6.5 6.5 0 1 1 6.5-6.5 6.508 6.508 0 0 1-6.5 6.5zm-5.462-27a2.111 2.111 0 0 1-2.038-2.167v-8.667a2.112 2.112 0 0 1 2.038-2.166h12.828a30.462 30.462 0 0 1 9.03 13z" class="cls-1" data-name="Path 612"/>
            <path id="Path_613" d="M75 69.5a2.5 2.5 0 1 0 2.5 2.5 2.5 2.5 0 0 0-2.5-2.5z" class="cls-1" data-name="Path 613"/>
            <path id="Path_614" d="M21.5 69.5A2.5 2.5 0 1 0 24 72a2.5 2.5 0 0 0-2.5-2.5z" class="cls-1" data-name="Path 614"/>
        </g>
    </g>
</svg>
