<svg xmlns="http://www.w3.org/2000/svg" viewBox="0 0 93.806 92.033">
    <defs>
        <style>
            .cls-1{fill:url(#linear-gradient)}
        </style>
        <linearGradient id="linear-gradient" x1=".5" x2=".5" y2="1" gradientUnits="objectBoundingBox">
            <stop offset="0" stop-color="#b5d7ff"/>
            <stop offset=".42" stop-color="#7ebffe"/>
            <stop offset="1" stop-color="#4a90e2"/>
        </linearGradient>
    </defs>
    <path id="Surf_Waves" d="M83.945 3.3A91.186 91.186 0 0 1 70.6 48.8a28.116 28.116 0 0 0-4.5-1.1l-3.254-8.28a5.747 5.747 0 0 0-4.514-3.574l-11.001-1.608 2.345-14.875 4.943-.668a10.082 10.082 0 0 1 5.136.637l5.173 2.075a1.24 1.24 0 0 0 1.614-.686l.937-2.339a1.236 1.236 0 0 0-.69-1.61L59.625 13.9a8.146 8.146 0 0 0-3.564-.569l-1.755.111a5.581 5.581 0 0 0 .314-1.854 5.647 5.647 0 1 0-10.328 3.157c-1.35.3-8.292 2.493-8.292 2.493l1.017-3.87a1.233 1.233 0 0 0-.881-1.5l-2.463-.647a1.23 1.23 0 0 0-1.5.876l-1.913 7.368a3.068 3.068 0 0 0 3.857 3.714l4.6-1.394c-.156.772-.321 1.552-.477 2.324-.718 3.483-2.109 7.461-.748 10.918 1.291 3.28 4.947 5.375 8.291 5.987 3.641.659 7.382.929 11.056 1.361l1.943 4.95a40.832 40.832 0 0 0-9.682 1.643c-.007-.03-1.672-4.284-1.967-4.96a21.343 21.343 0 0 1-5.146-2.129A10.915 10.915 0 0 1 36.6 35.3a9.46 9.46 0 0 1-.257-1.793 17.541 17.541 0 0 0 3.589 13.031l1.652 2.111.529.681a2.332 2.332 0 0 1 .34.6 2.367 2.367 0 0 1 .085 1.41l-.077.3a26.943 26.943 0 0 0-9.119 7.428.394.394 0 0 0 .1.569 29.178 29.178 0 0 0 15.438 3.955 37.534 37.534 0 0 0 5.592-.4 31.943 31.943 0 0 0 7.572-2.592A91.528 91.528 0 0 1 4.85 91.974a84.43 84.43 0 0 0 23.712 3.355c38.711 0 70.093-25.552 70.093-57.074 0-13.175-5.498-25.299-14.71-34.955zm.984 3.279s8.943 9.521 10.861 20.43c.971 5.518 1.741 6.136-.3 14.172C95.147 30.22 84.929 6.575 84.929 6.575z" class="cls-1" data-name="Surf Waves" transform="translate(-4.85 -3.296)"/>
</svg>
