<svg xmlns="http://www.w3.org/2000/svg" viewBox="0 0 44.717 44">
    <defs>
        <style>
            .cls-1,.cls-4{fill:none}.cls-1{stroke:#15457d;stroke-width:2px}.cls-2{fill:#15457d}.cls-3{stroke:none}
        </style>
    </defs>
    <g id="היסטוריית_מפגשים" data-name="היסטוריית מפגשים" transform="translate(-307 -317)">
        <g id="Ellipse_333" class="cls-1" data-name="Ellipse 333" transform="translate(307 317)">
            <circle cx="22" cy="22" r="22" class="cls-3"/>
            <circle cx="22" cy="22" r="21" class="cls-4"/>
        </g>
        <g id="noun_archive_1905183_000000" transform="rotate(-13 1549.88 -1156.317)">
            <path id="Path_667" d="M37.844 43.146H8.629a.812.812 0 0 1-.774-1.055l5.169-16.424a.812.812 0 0 1 .776-.567h29.213a.812.812 0 0 1 .774 1.055l-5.169 16.423a.812.812 0 0 1-.774.568zM9.735 41.523h27.514l4.658-14.8H14.393z" class="cls-2" data-name="Path 667" transform="translate(-.001 -2.345)"/>
            <path id="Path_668" d="M8.628 40.8a.817.817 0 0 1-.818-.811V13.473a.811.811 0 0 1 .811-.811h10.662a.813.813 0 0 1 .647.321l3.706 4.886h14.207a.811.811 0 0 1 .811.811v4.886a.811.811 0 0 1-.811.811H14.392L9.4 40.233a.812.812 0 0 1-.772.567zm.805-26.517v20.446l3.59-11.407a.812.812 0 0 1 .774-.568h23.234v-3.263h-13.8a.813.813 0 0 1-.647-.321l-3.704-4.886H9.433z" class="cls-2" data-name="Path 668"/>
            <path id="Path_669" d="M26.661 40.116h-6.735a2.547 2.547 0 0 1-.9-4.931 2.6 2.6 0 0 1 2.8-1.617 3.126 3.126 0 0 1 5.837 1.559v.1a2.548 2.548 0 0 1-1 4.89zm-5.248-4.958a.926.926 0 0 0-.915.8.812.812 0 0 1-.7.7.924.924 0 0 0 .124 1.839h6.735a.924.924 0 0 0 .043-1.846.812.812 0 0 1-.733-1.071 1.388 1.388 0 0 0 .071-.448 1.5 1.5 0 0 0-2.963-.352.811.811 0 0 1-1.207.507.889.889 0 0 0-.454-.129z" class="cls-2" data-name="Path 669" transform="translate(-1.804 -3.645)"/>
        </g>
    </g>
</svg>
