<svg xmlns="http://www.w3.org/2000/svg" viewBox="0 0 44 44">
    <defs>
        <style>
            .cls-1,.cls-4{fill:none}.cls-1{stroke:#15457d;stroke-width:2px}.cls-2{fill:#15457d}.cls-3{stroke:none}
        </style>
    </defs>
    <g id="מפתח_הרשמה" data-name="מפתח הרשמה" transform="translate(-307 -421)">
        <g id="Ellipse_334" class="cls-1" data-name="Ellipse 334" transform="translate(307 421)">
            <circle cx="22" cy="22" r="22" class="cls-3"/>
            <circle cx="22" cy="22" r="21" class="cls-4"/>
        </g>
        <g id="noun_Key_192285_000000" transform="rotate(135.97 87.418 294.981)">
            <path id="Path_686" d="M31.288 5h-3.755a.864.864 0 0 0-.541.21L16.176 16.026a8.082 8.082 0 0 0-2.914-.541 8.277 8.277 0 1 0 8.262 8.292 8.082 8.082 0 0 0-.541-2.914l2.554-2.554a.724.724 0 0 0 .21-.541v-1.5h1.5a.744.744 0 0 0 .753-.753v-1.5h1.5a.744.744 0 0 0 .751-.751v-1.5h1.5a.864.864 0 0 0 .541-.21l1.5-1.5a.724.724 0 0 0 .21-.541V5.751A.7.7 0 0 0 31.288 5zm-.751 4.206l-1.052 1.052h-1.952a.744.744 0 0 0-.751.751v1.5h-1.5a.744.744 0 0 0-.751.751v1.5h-1.5a.744.744 0 0 0-.751.751v1.953l-2.7 2.7a.777.777 0 0 0-.15.841 6.754 6.754 0 1 1-6.159-4 6.976 6.976 0 0 1 2.794.6.788.788 0 0 0 .841-.15L27.833 6.5h2.7z" class="cls-2" data-name="Path 686"/>
            <path id="Path_687" d="M19.753 67.5a2.253 2.253 0 1 0 2.253 2.253 2.27 2.27 0 0 0-2.253-2.253zm0 3a.751.751 0 1 1 .751-.751.744.744 0 0 1-.751.751z" class="cls-2" data-name="Path 687" transform="translate(-8.745 -43.723)"/>
        </g>
    </g>
</svg>
